<?xml version="1.0" encoding="UTF-8"?>
<svg width="31px" height="27px" viewBox="0 0 31 27" version="1.1" xmlns="http://www.w3.org/2000/svg" xmlns:xlink="http://www.w3.org/1999/xlink">
    <!-- Generator: Sketch 43.2 (39069) - http://www.bohemiancoding.com/sketch -->
    <title>folder-access</title>
    <desc>Created with Sketch.</desc>
    <defs></defs>
    <g id="Page-1" stroke="none" stroke-width="1" fill="none" fill-rule="evenodd">
        <g id="merchant" transform="translate(-745.000000, -132.000000)" fill-rule="nonzero">
            <g id="folder-access" transform="translate(745.666667, 132.000000)">
                <path d="M14.4221223,0 L14.4221223,1.67549293 C14.4221223,2.5292384 15.117518,3.22127582 15.9756475,3.22127582 L25.0021942,3.22127582 L25.012554,1.34219826 C25.012554,1.34219826 25.0180576,0 23.3273741,0 L14.4221223,0 Z" id="Shape" fill="#666666"></path>
                <g id="Group">
                    <path d="M11.5122302,16.3607525 C11.3609353,16.2102116 11.1153237,16.2102116 10.9640288,16.3607525 L10.717446,16.6061064 C10.5659353,16.7567547 10.5659353,17.0010348 10.7176619,17.1516831 L12.0694964,18.4968879 C12.2207914,18.6476436 12.4664029,18.6476436 12.6176978,18.4968879 L12.8642806,18.2515341 C13.0157914,18.1009931 13.0157914,17.8566057 12.8642806,17.7060647 L11.5122302,16.3607525 Z" id="Shape" fill="#000000"></path>
                    <path d="M15.647482,4.40241029 C14.157518,4.40241029 12.9496403,3.20055228 12.9496403,1.71801377 L12.9496403,0 L2.69784173,0 C1.2078777,0 0,1.20185801 0,2.68439652 L0,23.944817 C0,25.4273555 1.2078777,26.6292135 2.69784173,26.6292135 L27.3021583,26.6292135 C28.7921223,26.6292135 30,25.4273555 30,23.944817 L30,4.40241029 L15.647482,4.40241029 Z M20.8233453,12.0778516 L20.5582014,12.3415667 L20.1161871,11.9017552 C19.9688849,11.7552945 19.7302878,11.7552945 19.5829856,11.9017552 C19.4356835,12.0483232 19.4356835,12.285946 19.5829856,12.4322993 L20.025,12.8721108 L19.561295,13.3335049 L18.778705,12.5549225 C18.6314029,12.4082471 18.3923741,12.4083545 18.2452878,12.5549225 C18.0982014,12.7013832 18.0982014,12.9388986 18.2452878,13.085574 L19.0278777,13.8641564 L18.7032734,14.1870356 C18.4471942,14.4419459 18.0317266,14.4420533 17.7756475,14.1870356 L17.029964,13.4452832 L14.8904676,15.5743317 L15.2610432,15.9431678 C15.8674101,16.5469423 15.8674101,17.5253511 15.2610432,18.1289108 L13.6132014,19.7684329 C13.0070504,20.3718852 12.0234173,20.3718852 11.4167266,19.7682181 L9.4397482,17.8010923 C8.83294964,17.1975326 8.83316547,16.2190164 9.4397482,15.6154567 L11.0871583,13.976042 C11.6939568,13.3724823 12.6773741,13.3724823 13.2840647,13.976042 L13.6845324,14.3745139 L16.2879496,11.7841786 L17.8489209,10.2309868 L18.4081295,9.67467244 C18.6644245,9.41965477 19.0796763,9.41965477 19.3357554,9.67467244 L19.8951799,10.2309868 L20.8236691,11.1548487 C21.0792086,11.4098663 21.0792086,11.8229413 20.8233453,12.0778516 Z" id="Shape" fill="#666666"></path>
                </g>
            </g>
        </g>
    </g>
</svg>