<?xml version="1.0" encoding="UTF-8"?>
<svg width="347px" height="343px" viewBox="0 0 347 343" version="1.1" xmlns="http://www.w3.org/2000/svg" xmlns:xlink="http://www.w3.org/1999/xlink">
    <!-- Generator: Sketch 43.2 (39069) - http://www.bohemiancoding.com/sketch -->
    <title>Page 1 Copy</title>
    <desc>Created with Sketch.</desc>
    <defs></defs>
    <g id="Page-1" stroke="none" stroke-width="1" fill="none" fill-rule="evenodd">
        <g id="index" transform="translate(-1563.000000, -1243.000000)">
            <g id="Page-1-Copy" transform="translate(1712.891540, 1401.754525) rotate(-43.000000) translate(-1712.891540, -1401.754525) translate(1555.391540, 1267.291839)">
                <path d="M303.354491,128.036135 C304.505451,130.633433 303.242908,133.495212 300.548382,134.396105 L44.4764227,219.970555 C41.7818964,220.871448 38.9292938,219.37547 38.1368469,216.646965 L0.72343074,87.7842195 C-0.0690162432,85.0557139 1.48488241,82.0771899 4.17527608,81.1659661 L241.32046,0.798508904 C244.010854,-0.113748002 247.154812,1.26548526 248.305772,3.86278295 L303.354491,128.036135 Z" id="Stroke-1" stroke="#414B4F"></path>
                <path d="M248.623267,4.60694903 L304.383846,130.103745 C305.536871,132.70001 304.276395,135.562823 301.581869,136.463715 L44.8207807,222.379099 C42.1262543,223.281025 39.2798509,221.784014 38.4946362,219.053442 L1.73728762,91.1318821" id="Stroke-3" stroke="#414B4F"></path>
                <path d="M300.023837,137.665973 L314.219693,196.269439 C314.888159,199.031005 313.151388,201.724384 310.360776,202.255415 L43.6191955,253.014298 C40.8275505,253.545329 38.2652708,251.672257 37.9243223,248.85077 L31.0536933,191.991233" id="Stroke-5" stroke="#414B4F"></path>
                <path d="M299.884359,136.689558 L314.262054,198.325271 C314.90779,201.092003 313.151388,203.790548 310.360776,204.321578 L43.6191955,255.080462 C40.8275505,255.611492 38.2652708,253.738421 37.9243223,250.917967 L31.0536933,194.057397" id="Stroke-7" stroke="#414B4F"></path>
                <path d="M270.752065,54.4353924 C270.752065,54.4353924 272.979595,53.9270907 275.702017,53.3051443 C278.42444,52.6831979 281.179923,54.4384918 281.825659,57.2052234 L292.716381,103.892528" id="Stroke-9" stroke="#414B4F"></path>
                <path d="M304.932979,206.074496 L303.514427,261.212832 C303.441071,264.052916 301.057531,266.32581 298.217327,266.262789 L28.0383654,260.29231 C25.198161,260.229289 23.1400718,257.869612 23.4655227,255.047091 L30.7463231,191.819319" id="Stroke-11" stroke="#414B4F"></path>
                <path d="M305.002306,205.443871 L303.51453,263.279719 C303.441175,266.119803 301.057635,268.391664 298.21743,268.329676 L28.0384687,262.359197 C25.1982643,262.296176 23.1401751,259.935466 23.4645928,257.112945 L30.7464264,193.885173" id="Stroke-13" stroke="#414B4F"></path>
                <path d="M293.437022,106.095891 L302.350243,105.86137 C305.190447,105.785951 307.454139,108.048514 307.381816,110.888598 L306.09551,160.869532" id="Stroke-15" stroke="#414B4F"></path>
                <path d="M44.2786726,84.930808 C43.8137428,85.0878443 43.5812779,85.1673956 43.1163481,85.3244319 C43.4872588,86.4247191 43.6721975,86.9753793 44.042075,88.0756665 C44.5328342,87.9103651 44.7776972,87.8266813 45.2674233,87.6603468 C45.9462208,87.4309911 46.3894538,87.221265 46.5971224,87.0322016 C46.8027247,86.8452044 46.9432368,86.6137825 47.0145261,86.3400021 C47.0868485,86.0672549 47.0796162,85.8017396 46.9928293,85.5455225 C46.9039761,85.2800071 46.7448668,85.0651154 46.5155014,84.8987809 C46.2851029,84.7314132 46.0102777,84.6425638 45.6879264,84.6332656 C45.3666083,84.6229342 44.8965126,84.722115 44.2786726,84.930808 M42.9345089,81.247687 C42.5067735,81.3923257 42.2929058,81.464645 41.8651704,81.6092837 C42.2164507,82.6527486 42.3920909,83.174481 42.7444043,84.218979 C43.0750211,84.1063675 43.2403294,84.0505782 43.569913,83.9389998 C44.234246,83.7148098 44.6630146,83.4286319 44.8582851,83.081499 C45.0525224,82.733333 45.0814514,82.3593387 44.9461051,81.9574497 C44.6661141,81.1257772 43.9966152,80.8891896 42.9345089,81.247687 M46.1115291,88.605664 C44.9357734,89.0054866 44.3478955,89.2048814 43.1721397,89.6026378 C42.0036162,86.1313092 41.4188379,84.3956448 40.2513475,80.9222499 C41.1605435,80.6154093 41.6151415,80.4625055 42.5253707,80.1546317 C43.2413626,79.9128785 43.8344064,79.8209296 44.3003693,79.8767188 C44.7673655,79.932508 45.1630724,80.0936768 45.4885232,80.3591921 C45.8129409,80.6247075 46.0505717,80.9790723 46.1993492,81.4212534 C46.4865725,82.2746217 45.4926559,83.7034454 45.4926559,83.7034454 C45.5040209,83.7292737 46.7593313,83.6972466 47.270754,83.9699938 C47.7801104,84.2437742 48.1293244,84.660127 48.3173626,85.2190523 C48.4671733,85.6612334 48.4857705,86.0951495 48.3752206,86.5208005 C48.2636374,86.9464515 48.0249735,87.3442079 47.6581955,87.7130366 C47.2893512,88.0828984 46.7748289,88.3804409 46.1115291,88.605664" id="Fill-17" fill="#414B4F"></path>
                <path d="M54.8466299,81.5223972 C53.8630451,80.4603359 53.3702195,79.9293053 52.3866347,78.8662109 C52.2905492,80.2991671 52.2419899,81.0161618 52.1459044,82.4501511 C53.2255747,82.0792562 53.7659264,81.8943253 54.8466299,81.5223972 M51.3193626,77.1078176 C51.6685765,76.9879741 51.8431835,76.9280524 52.1934306,76.8082089 C54.9261845,79.7598714 56.2920449,81.2331198 59.0247988,84.1775504 C58.5154424,84.3531831 58.2612808,84.4409994 57.7519244,84.6176652 C56.9429466,83.7508662 56.5379411,83.3169501 55.7289633,82.4501511 C54.247387,82.9605191 53.5065989,83.2146699 52.0250227,83.7229716 C51.9372026,84.8986776 51.892776,85.4865305 51.8059891,86.6622365 C51.2945663,86.8378692 51.0393715,86.9256855 50.5279488,87.1002851 C50.8451342,83.1030915 51.0032103,81.1050112 51.3193626,77.1078176" id="Fill-19" fill="#414B4F"></path>
                <path d="M64.8454097,72.495393 C65.3175718,72.3311247 65.5541694,72.2495072 66.0263314,72.085239 C67.1948549,75.5452032 67.7786001,77.2757018 68.9481568,80.7346329 C68.5204214,80.8834041 68.3065537,80.9577897 67.8788183,81.1065609 C64.6563383,79.25002 63.0445817,78.3212329 59.8231349,76.4574601 C60.7230323,79.1239777 61.1724645,80.4567199 62.0723619,83.1232376 C61.6053658,83.2854396 61.3718677,83.366024 60.9048715,83.5282259 C59.7353149,80.0661955 59.1515697,78.3346637 57.982013,74.8716001 C58.3849521,74.7321271 58.5864217,74.6629071 58.9893608,74.5234341 C62.2387034,76.4037371 63.8638913,77.3418224 67.1132339,79.2148934 C66.2061042,76.5277131 65.7525394,75.1836064 64.8454097,72.495393" id="Fill-21" fill="#414B4F"></path>
                <path d="M73.6858946,69.4181014 C74.3078673,69.2011434 74.6178205,69.0926644 75.2397932,68.8757063 C74.2882369,71.0432205 73.8119422,72.1259444 72.8603859,74.2934586 C75.3513764,75.4557338 76.5973882,76.037388 79.0883786,77.1986301 C78.408548,77.4362508 78.0696658,77.554028 77.3908683,77.7916487 C75.0383236,76.702726 73.8615347,76.1582646 71.5100232,75.0683087 C72.0865361,76.7771116 72.3747926,77.631513 72.9523387,79.3392827 C72.4553804,79.5128492 72.2063847,79.5996324 71.7094264,79.7731988 C70.5409029,76.3142678 69.9571577,74.5837691 68.7886342,71.124838 C69.2855925,70.9512716 69.5345882,70.8644884 70.0315465,70.6919551 C70.5656991,72.2736825 70.8332921,73.0650628 71.3674447,74.6478234 C72.2952379,72.555728 72.7581014,71.5101968 73.6858946,69.4181014" id="Fill-23" fill="#414B4F"></path>
                <path d="M92.1701596,70.3943093 C92.3540651,70.9387707 92.4460179,71.2115179 92.6299235,71.7570124 C91.887069,72.5690554 90.9179487,73.1827367 89.7246289,73.5990895 C88.7544754,73.9358911 87.865943,74.0299062 87.0590315,73.8770024 C86.2541864,73.7251318 85.5371613,73.3769658 84.9151886,72.8335376 C84.2901163,72.2901093 83.8448169,71.6216719 83.5782572,70.8292585 C83.151555,69.5709019 83.2445409,68.3559369 83.8561819,67.1822972 C84.4678228,66.0096906 85.4338436,65.192482 86.7563105,64.7317044 C87.6686061,64.4145325 88.7617077,64.2977884 90.0376816,64.3835384 C90.2164213,64.9166353 90.3063077,65.1821507 90.4860806,65.7152476 C89.2751968,65.4910576 88.1862279,65.5478799 87.2160744,65.8857146 C86.2211247,66.2328475 85.5020333,66.8341312 85.0557007,67.6885326 C84.6114345,68.542934 84.5463443,69.4396939 84.8645629,70.3798454 C85.1848479,71.3292952 85.7716926,71.9966994 86.625097,72.3820582 C87.4774683,72.767417 88.4062947,72.7849803 89.4136425,72.4337149 C90.4674834,72.0669525 91.3849448,71.3871506 92.1701596,70.3943093" id="Fill-25" fill="#414B4F"></path>
                <path d="M98.9463561,66.1876995 C97.9627714,65.1277045 97.4699458,64.597707 96.486361,63.5387452 C96.3902755,64.9727345 96.3427494,65.6897292 96.2466639,67.1237185 C97.3263342,66.748691 97.8666859,66.5616939 98.9463561,66.1876995 M95.4190889,61.7855176 C95.7683028,61.6646409 95.9429098,61.6036861 96.2931569,61.4817763 C99.0259108,64.4220743 100.392804,65.8932565 103.125558,68.8387202 C102.616202,69.0143529 102.361007,69.1021692 101.852684,69.2778019 C101.043706,68.412036 100.638701,67.9791531 99.8297227,67.112354 C98.3481465,67.6258214 97.6073584,67.8830716 96.1257821,68.3975721 C96.0369289,69.5732781 95.9935354,70.1621642 95.9057154,71.3378702 C95.3942926,71.5155691 95.1390978,71.6044186 94.6276751,71.7821176 C94.9448605,67.7828577 95.1029366,65.7837443 95.4190889,61.7855176" id="Fill-27" fill="#414B4F"></path>
                <path d="M104.054695,60.028674 C103.904884,60.0803307 103.830495,60.1051259 103.681718,60.1567826 C104.050562,61.2498378 104.234467,61.7973986 104.603312,62.8904539 C104.792383,62.8253665 104.887436,62.7923062 105.076507,62.7272188 C105.706745,62.5102607 106.120016,62.3087997 106.317353,62.1207694 C106.515723,61.9327391 106.642804,61.7064828 106.700662,61.4461332 C106.757486,61.1847504 106.740956,60.9151026 106.646936,60.6382228 C106.554984,60.3654755 106.398974,60.1423187 106.178907,59.9718517 C105.959874,59.8003515 105.702612,59.7146014 105.410223,59.7146014 C105.114735,59.7135683 104.664269,59.8189479 104.054695,60.028674 M105.004185,68.191462 C103.835661,64.7273653 103.251916,62.9958335 102.083392,59.5327699 C102.953328,59.232128 103.388295,59.0823237 104.258231,58.7816818 C105.137464,58.4789737 105.908215,58.4572779 106.570481,58.713495 C107.231715,58.9697121 107.688379,59.4687156 107.938408,60.2084392 C108.107849,60.7126084 108.12748,61.1930155 107.999366,61.6465611 C107.871252,62.102173 107.190388,62.844996 107.190388,62.844996 C107.198653,62.8832219 107.884683,63.0867492 108.25456,63.3099061 C108.626504,63.5340961 109.185453,63.9535483 109.929341,64.570329 C110.39737,64.9587872 110.764148,65.2459983 111.030708,65.4329955 C111.298301,65.6179264 111.431581,65.7109084 111.69814,65.8968724 C111.107163,66.0983335 110.811674,66.1995806 110.220697,66.4020747 C109.992365,66.2243758 109.877682,66.1365594 109.64935,65.9598936 C109.628686,65.9433634 109.592525,65.916502 109.5388,65.8803423 C109.395188,65.777029 109.323899,65.7253723 109.18132,65.6220589 C108.941623,65.421631 108.821775,65.3214171 108.583111,65.119956 C108.32585,64.9071305 108.196702,64.7996846 107.939441,64.5868591 C107.563365,64.3192775 107.231715,64.1167834 106.947591,63.9793766 C106.662434,63.8419699 106.418604,63.7572529 106.215068,63.7231595 C106.011532,63.6900992 105.706745,63.742789 105.299673,63.8832952 C105.170526,63.9277199 105.105436,63.9494157 104.976289,63.9948736 C105.484612,65.5022154 105.738774,66.2553698 106.247097,67.7627116 C105.750139,67.9342118 105.501143,68.0199618 105.004185,68.191462" id="Fill-29" fill="#414B4F"></path>
                <path d="M113.807268,56.7429994 C113.185296,56.9547918 112.875342,57.0601714 112.25337,57.2719638 C113.122272,59.8516982 113.557239,61.1410489 114.426142,63.7218164 C115.062579,63.5048584 115.380797,63.3974125 116.018268,63.1814876 C116.639207,62.9707283 117.107237,62.7651348 117.422356,62.5636737 C117.738508,62.3622127 117.988537,62.1576523 118.174509,61.9489593 C118.360481,61.7412994 118.518557,61.5098775 118.643571,61.2557267 C119.048577,60.430253 119.088871,59.5386588 118.770652,58.5902422 C118.457599,57.6583557 117.88212,57.0054153 117.057644,56.6293547 C116.752857,56.4898817 116.42534,56.3979328 116.078192,56.3586738 C115.731044,56.3204478 115.413859,56.3235472 115.129735,56.3700382 C114.845612,56.4154961 114.403412,56.5394721 113.807268,56.7429994 M113.556206,65.2498209 C112.388716,61.7857242 111.804971,60.0541924 110.638514,56.5921619 C111.809103,56.1923393 112.394915,55.9919114 113.566538,55.5931218 C114.746427,55.192266 115.741376,55.0517598 116.547255,55.1726365 C117.355199,55.2935131 118.07739,55.6303146 118.714861,56.1799417 C119.352331,56.7295687 119.807962,57.4114368 120.080721,58.2245129 C120.275991,58.8041008 120.351413,59.3981526 120.305954,60.0035689 C120.259461,60.6089851 120.095185,61.1834073 119.818294,61.7237362 C119.535203,62.2785289 119.143629,62.758936 118.661135,63.1587586 C118.377012,63.3943131 118.106319,63.5844097 117.846992,63.7218164 C117.587664,63.8571569 117.073142,64.0555186 116.302392,64.3158682 C115.204124,64.6888294 114.654474,64.8758266 113.556206,65.2498209" id="Fill-31" fill="#414B4F"></path>
                <path d="M43.7958689,92.2941573 L121.800754,65.9492523" id="Stroke-33" stroke="#414B4F"></path>
                <path d="M30.4180826,82.8329271 C29.3632086,82.4062429 28.2277468,82.1179987 27.0778204,81.97336 L20.5491731,88.1618298 L16.1385393,87.946938 C15.8110221,88.5678513 15.5465287,89.2114935 15.3657227,89.8737321 L22.6155277,90.2280969 L30.4180826,82.8329271 Z" id="Stroke-35" stroke="#414B4F"></path>
                <path d="M27.0780271,81.9738765 C27.054264,81.9707771 27.0305009,81.9656115 27.0067378,81.9625121 C22.485554,81.420117 18.1017828,84.2147432 16.1387459,87.9464215 L20.5493798,88.1613132 L27.0780271,81.9738765 Z" id="Stroke-37" stroke="#414B4F"></path>
                <path d="M33.0535113,84.3598984 C32.2817278,83.7317532 31.3849299,83.2244847 30.417876,82.8329271 L22.6153211,90.2280969 L15.365516,89.8737321 C15.1898759,90.5142749 15.091724,91.1672152 15.0720937,91.8253213 L23.7776455,92.2943639 L33.0535113,84.3598984 Z" id="Stroke-39" stroke="#414B4F"></path>
                <path d="M15.9464716,96.0510441 C17.2327773,98.81261 19.7981566,99.9459575 23.6488083,100.301355 C29.2455297,100.817922 34.4599755,96.7029513 35.5303472,91.7780038 C36.0345377,89.4596521 35.6016364,87.5545539 34.5984213,86.0492784 L25.7151629,94.3608376 L15.9464716,96.0510441 Z" id="Stroke-41" stroke="#414B4F"></path>
                <path d="M33.0535113,84.3598984 L23.7776455,92.2943639 L15.0720937,91.8253213 C15.0586624,92.2396078 15.0700273,92.6538944 15.1247857,93.0692141 C15.2787291,94.2314893 15.5566538,95.2129661 15.9461617,96.0508374 L25.714853,94.360631 L34.5981113,86.0490717 C34.1755418,85.4147278 33.6548205,84.8496037 33.0535113,84.3598984 Z" id="Stroke-43" stroke="#414B4F"></path>
                <path d="M72.6868121,112.542645 C71.6102414,112.906308 70.0480773,113.837161 69.2143032,114.609945 C69.2143032,114.609945 66.5776348,117.054339 67.4909635,119.752884 C67.5932481,120.054559 67.7285943,120.335571 67.878405,120.605219 C67.9197321,120.680637 67.9651919,120.751924 68.0116849,120.825276 C68.1397989,121.03087 68.280311,121.225099 68.4342544,121.407963 C68.478681,121.460653 68.5179417,121.516442 68.5644347,121.567066 C68.7638379,121.787123 68.9808052,121.987551 69.2143032,122.16835 C69.2638958,122.207609 69.3186541,122.239636 69.370313,122.276829 C69.5645503,122.416302 69.7660199,122.541311 69.9767881,122.652889 C70.0511768,122.692148 70.1234993,122.730374 70.197888,122.765501 C70.454116,122.885344 70.716543,122.989691 70.9893018,123.066143 C71.0027331,123.070275 71.0151313,123.076474 71.0285626,123.080607 L71.2620606,123.143628 C71.5255208,123.188053 71.5916442,123.382282 71.4077386,123.577544 L71.2610275,123.769707 C71.252762,123.780038 71.246563,123.792436 71.2382976,123.8038 C71.0688565,124.031089 70.9231785,124.272843 70.7929981,124.523894 C70.7547706,124.597247 70.7196426,124.671632 70.6855477,124.747051 C70.5853295,124.962976 70.500609,125.1851 70.4313861,125.414455 C70.4127889,125.47541 70.3890258,125.533266 70.372495,125.595254 C70.297073,125.880398 70.2474805,126.171742 70.2216511,126.468251 C70.215452,126.535405 70.2175184,126.604625 70.2144189,126.672812 C70.2030539,126.911466 70.209253,127.151153 70.2319829,127.392906 C70.2402483,127.478656 70.2474805,127.56234 70.2598787,127.649123 L70.3043053,127.953897 C70.3952249,128.2876 69.5883134,128.858922 68.5117427,129.222585 L62.639163,131.208268 C61.5625922,131.572964 60.5748747,131.608091 60.4446944,131.287819 L60.2948837,131.018172 C60.2525234,130.942753 60.2070636,130.871467 60.1616038,130.798114 C60.0324566,130.592521 59.8919445,130.398291 59.7380011,130.215427 C59.6946077,130.162737 59.6543138,130.106948 59.608854,130.056324 C59.4084176,129.836267 59.1914503,129.635839 58.9589854,129.455041 C58.9083597,129.415781 58.8536014,129.383754 58.8019425,129.346561 C58.6077052,129.207088 58.4062356,129.082079 58.1954674,128.970501 C58.1221118,128.931242 58.0497894,128.893016 57.9743675,128.857889 C57.7181395,128.738046 57.4557125,128.633699 57.1839868,128.557247 C57.1705555,128.553115 57.1571242,128.546916 57.1436929,128.542784 L56.911228,128.479762 C56.6467347,128.435338 56.5816445,128.241109 56.7645169,128.045846 L56.911228,127.853684 C56.9194935,127.843352 56.9256925,127.830955 56.9339579,127.81959 C57.1044322,127.592301 57.249077,127.350548 57.3802905,127.099496 C57.4185181,127.026144 57.4526129,126.951758 57.4867078,126.876339 C57.586926,126.660414 57.6716465,126.438291 57.7408694,126.208935 C57.7594666,126.14798 57.7832297,126.090125 57.7997605,126.028137 C57.8751825,125.742992 57.9258081,125.451648 57.9516376,125.155139 C57.9568035,125.087985 57.9547371,125.018765 57.9578366,124.950578 C57.9692016,124.711924 57.9630025,124.472238 57.9402726,124.230484 C57.9320072,124.144734 57.924775,124.060017 57.9123768,123.974267 C57.8679502,123.669493 57.8059596,123.364718 57.703675,123.06201 C57.6013905,122.760335 57.4660442,122.479323 57.3152004,122.210708 C57.2738733,122.134256 57.2284135,122.06297 57.1829537,121.989618 C57.0538065,121.784024 56.9132944,121.589795 56.759351,121.40693 C56.7159575,121.354241 56.6756636,121.298451 56.6302038,121.247828 C56.4297674,121.028803 56.2128002,120.827342 55.9803353,120.646544 C55.9297096,120.607285 55.8749512,120.575258 55.8232924,120.538065 C55.629055,120.398592 55.4275854,120.273583 55.2168173,120.162004 C55.1434617,120.123778 55.0711393,120.085553 54.9957173,120.049393 C54.7394894,119.929549 54.4770623,119.825203 54.2043035,119.748751 C54.1908722,119.744618 54.1784741,119.73842 54.1650428,119.73532 L53.9325779,119.671266 C53.6680845,119.627874 53.6029943,119.432612 53.7858667,119.238383 L53.9325779,119.04622 C53.9408433,119.034856 53.9470424,119.022458 53.9553078,119.011094 C54.1257821,118.784837 54.2704269,118.542051 54.4006072,118.292033 C54.439868,118.217647 54.4739628,118.143262 54.5080577,118.067843 C54.6082759,117.851918 54.6929964,117.629794 54.7622193,117.401472 C54.7808165,117.340517 54.8045795,117.281628 54.8211104,117.21964 C54.8965323,116.934495 54.947158,116.644185 54.9719543,116.347675 C54.9781533,116.279489 54.976087,116.211302 54.9791865,116.143115 C54.9905515,115.903428 54.9843524,115.663741 54.9616225,115.423021 C54.9533571,115.337271 54.9461248,115.252554 54.9337267,115.166804 L54.8893001,114.860996 C54.7983805,114.527294 55.6052919,113.955971 56.6818627,113.592308 L71.363312,108.628102 C72.4398828,108.263406 73.618738,108.847126 73.9824164,109.923651 C74.3460949,111.000176 73.7633829,112.178982 72.6868121,112.542645 L72.6868121,112.542645 Z M76.9610666,118.731114 C77.324745,119.80764 76.742033,120.986445 75.6654623,121.351141 C74.5888915,121.714804 72.7828976,121.923497 71.6515685,121.815018 C71.6515685,121.815018 69.1988056,121.580497 68.4693824,119.422281 C67.7389261,117.263032 69.54492,115.588322 69.54492,115.588322 C70.3786941,114.815538 71.9408581,113.885718 73.0174289,113.521022 C74.0939996,113.157359 75.2728549,113.740046 75.6375665,114.816572 L76.9610666,118.731114 Z M78.6162166,123.625068 C78.979895,124.701593 78.397183,125.880398 77.3206123,126.244062 L73.4059035,127.568539 C72.3293328,127.932202 71.5368858,127.304057 71.6453694,126.172775 L72.5235701,124.396819 C73.3573442,123.624035 74.9195083,122.693182 75.996079,122.329519 C77.0726497,121.965856 78.251505,122.548543 78.6162166,123.625068 L78.6162166,123.625068 Z M51.8734556,134.849031 C50.7968848,135.213727 49.6293945,134.6641 49.2801806,133.629933 C48.9299335,132.595766 48.705734,131.705205 48.7811559,131.651482 L48.8493456,131.610157 C48.904104,131.57813 48.9578292,131.543003 49.0125876,131.514076 L49.19546,131.415928 C49.4020955,131.333277 50.4518036,130.967548 51.5283743,130.603885 L52.5067932,130.272249 C53.583364,129.908586 55.3903911,129.69886 56.5217202,129.807339 L58.297752,130.686536 C59.0705686,131.520274 58.822606,132.499685 57.7460353,132.863348 L51.8734556,134.849031 Z M48.6447765,130.427219 C48.5838191,130.43755 48.5197621,130.442716 48.4577714,130.449948 L48.3771836,130.459246 C48.2852308,130.462346 47.9112206,129.584182 47.5475422,128.507657 L46.3273599,124.897889 C45.9626483,123.821363 45.7270838,122.896709 45.8025058,122.842986 L45.8706955,122.801661 C45.9254539,122.769633 45.9791791,122.73554 46.0339375,122.706612 L46.2168099,122.607431 C46.4234453,122.524781 47.4731535,122.159052 48.5497242,121.795389 L49.5281431,121.464786 C50.6047138,121.10009 52.4117409,120.891397 53.5430701,120.999876 C53.5430701,120.999876 55.9947998,121.234397 56.724223,123.393646 C57.4546793,125.551862 55.6486854,127.226571 55.6486854,127.226571 C54.8149113,127.999355 53.2527472,128.930209 52.1761765,129.293872 L51.1977576,129.624474 C50.1211869,129.989171 49.0642465,130.33527 48.8503788,130.394159 L48.6447765,130.427219 Z M51.788735,115.247388 C52.8653058,114.882692 53.6567196,115.510837 53.548236,116.642118 L52.6700353,118.419108 C51.8362612,119.191892 50.2740971,120.121712 49.1975264,120.485375 L48.2180743,120.817011 C47.1415036,121.180674 46.0855964,121.526774 45.8717287,121.586696 L45.6661264,121.619756 C45.6051689,121.629054 45.5411119,121.635253 45.4791213,121.642485 L45.3985335,121.65075 C45.3065807,121.654882 44.9449686,120.810812 44.5947215,119.775612 C44.2444744,118.741446 44.8395846,117.596734 45.9161553,117.233071 L51.788735,115.247388 Z M56.2499946,112.648024 C55.1734238,113.011687 54.0710237,113.384648 53.8003312,113.475564 C53.5296388,113.567513 52.4272386,113.940474 51.3506679,114.304137 L44.6060865,116.585296 C43.5295157,116.948959 42.9468038,118.127764 43.3104822,119.20429 L43.4819896,119.709492 C43.845668,120.786017 44.2114128,121.866675 44.2930338,122.110494 C44.3756879,122.354314 44.4552426,122.587802 44.4686739,122.63016 C44.4831384,122.671486 44.562693,122.904974 44.644314,123.148793 C44.7269682,123.392613 45.092713,124.473271 45.4563914,125.549796 L46.4606397,128.517988 C46.8243181,129.594514 47.1900629,130.674138 47.2716839,130.918991 C47.3543381,131.16281 47.4338927,131.396298 47.4483572,131.437624 C47.4617885,131.479982 47.5413432,131.71347 47.6239974,131.95729 C47.7056184,132.201109 48.0713631,133.281767 48.4350415,134.358292 L48.606549,134.863495 C48.9702274,135.94002 50.1490827,136.522707 51.2256534,136.159044 L57.9702348,133.877885 C59.0468055,133.514222 60.1492057,133.141261 60.4198981,133.049312 C60.6905906,132.958396 61.7929907,132.585435 62.8695615,132.221772 L68.9436108,130.167903 C70.0201815,129.803207 71.1225817,129.430245 71.3932742,129.33933 C71.6639666,129.247381 72.7663668,128.874419 73.8429375,128.510756 L78.6296479,126.891836 C79.7062187,126.528173 80.2899638,125.349368 79.9252522,124.272843 L79.5946355,123.294465 C79.2309571,122.21794 78.8579801,121.11662 78.7670605,120.846972 C78.6761409,120.578357 78.3041971,119.477037 77.9394855,118.400512 L76.6159854,114.485969 C76.252307,113.409444 75.87933,112.308123 75.7884104,112.039509 C75.6974908,111.769861 75.3255469,110.66854 74.9608353,109.592015 L74.6302186,108.613638 C74.265507,107.537113 73.0876849,106.954425 72.0111142,107.318088 L56.2499946,112.648024 Z" id="Fill-45" fill="#414B4F"></path>
                <path d="M293.556768,125.747538 C293.995868,126.796168 293.479279,127.967741 292.409941,128.351034 L234.116011,149.258557 C233.046673,149.642883 231.857486,149.080858 231.473144,148.011565 L223.407129,125.522314 C223.02382,124.453021 223.587935,123.273183 224.661406,122.900222 L281.824006,103.069223 C282.897477,102.696262 284.135224,103.250022 284.574324,104.297619 L293.556768,125.747538 Z" id="Stroke-47" stroke="#414B4F"></path>
                <polygon id="Fill-49" fill="#414B4F" points="256.372097 134.824855 253.272565 135.857989 250.936551 120.466366 254.305742 119.284461"></polygon>
                <path d="M262.240234,128.381511 C262.467533,129.056148 262.75269,129.517958 263.094672,129.764877 C263.719744,130.215323 264.643404,130.210158 265.869786,129.748347 C266.603342,129.4725 267.183987,129.163594 267.609656,128.822659 C268.417601,128.172818 268.737886,127.4083 268.573611,126.529103 C268.477525,126.015636 268.191335,125.698464 267.712974,125.577587 C267.235646,125.463942 266.515522,125.474274 265.5526,125.61168 L263.904683,125.83587 C262.284661,126.053862 261.145066,126.057994 260.482799,125.847235 C259.366968,125.499069 258.66544,124.56305 258.37925,123.037112 C258.117857,121.644448 258.38235,120.307573 259.169631,119.025454 C259.958978,117.742302 261.284545,116.750494 263.147364,116.05003 C264.702295,115.464243 266.110516,115.399156 267.370992,115.854767 C268.632502,116.310379 269.443546,117.353844 269.808258,118.986195 L266.880233,120.087515 C266.649835,119.172159 266.133246,118.655592 265.330467,118.536782 C264.794248,118.459297 264.165043,118.557445 263.441819,118.829159 C262.636974,119.131867 262.026366,119.542021 261.609996,120.060654 C261.192592,120.578254 261.040715,121.140279 261.154365,121.744662 C261.258715,122.300488 261.573835,122.625925 262.097655,122.722006 C262.436538,122.790193 263.122567,122.762298 264.155745,122.636256 L266.834773,122.318051 C268.008463,122.177545 268.918692,122.236433 269.567527,122.497816 C270.572809,122.901771 271.20718,123.796465 271.466507,125.181897 C271.733067,126.602456 271.439645,127.97549 270.585207,129.301 C269.730769,130.627544 268.364909,131.644147 266.485559,132.35081 C264.565916,133.072971 262.969657,133.17835 261.696783,132.666949 C260.422875,132.156581 259.635594,131.092454 259.33184,129.4756 L262.240234,128.381511 Z" id="Fill-51" fill="#414B4F"></path>
                <path d="M277.707518,121.538758 L281.441421,120.133697 L278.456571,115.926777 L277.707518,121.538758 Z M274.969598,112.956518 L279.446355,111.062784 L287.614655,124.099896 L284.311587,125.342756 L282.750456,122.508871 L277.380001,124.52968 L276.991526,128.09709 L273.805207,129.295525 L274.969598,112.956518 Z" id="Fill-53" fill="#414B4F"></path>
                <polygon id="Fill-55" fill="#414B4F" points="243.586528 123.546447 242.596744 134.996665 237.383331 125.938151 237.095075 126.04663 229.395838 128.47656 234.546227 129.616106 241.650354 139.78214 246.556913 138.010316 247.331796 122.25503"></polygon>
                <polygon id="Fill-57" fill="#414B4F" points="257.446085 253.719412 253.658457 253.662589 258.107318 235.576554 261.675912 235.70053"></polygon>
                <path d="M265.878878,248.757994 C265.841683,249.558673 265.9512,250.158923 266.208461,250.558746 C266.67959,251.286072 267.650777,251.659033 269.126154,251.676597 C270.008487,251.687961 270.74411,251.601178 271.328888,251.418313 C272.442653,251.067048 273.091488,250.396544 273.278493,249.407835 C273.38801,248.829281 273.217536,248.379868 272.765004,248.056497 C272.31144,247.742424 271.552054,247.459346 270.485815,247.208294 L268.66639,246.769212 C266.87796,246.335296 265.681541,245.872452 265.072999,245.381714 C264.044988,244.55934 263.692675,243.290652 264.017092,241.573584 C264.313614,240.00632 265.13809,238.711804 266.488452,237.689002 C267.840881,236.667233 269.636544,236.169262 271.877505,236.196124 C273.747556,236.218853 275.250829,236.727154 276.386291,237.719996 C277.522786,238.714903 277.946388,240.140628 277.661232,242.001301 L274.140163,241.958943 C274.27241,240.905146 273.941793,240.150959 273.149346,239.697413 C272.618293,239.397805 271.917799,239.242835 271.048897,239.232503 C270.08081,239.220106 269.271832,239.400904 268.62403,239.773865 C267.974161,240.145793 267.584653,240.672691 267.455506,241.353526 C267.337724,241.978572 267.535061,242.448648 268.04545,242.764787 C268.372968,242.974513 269.103424,243.225564 270.238886,243.516908 L273.178275,244.278327 C274.467681,244.61203 275.39754,245.046979 275.970953,245.585241 C276.860519,246.421046 277.159107,247.619481 276.864652,249.177447 C276.561931,250.776737 275.693029,252.096049 274.254846,253.136414 C272.81563,254.178846 270.966243,254.685081 268.705651,254.65822 C266.398566,254.629292 264.681425,254.086897 263.554229,253.030002 C262.428066,251.974139 262.037525,250.534984 262.381573,248.715636 L265.878878,248.757994 Z" id="Fill-59" fill="#414B4F"></path>
                <path d="M283.218486,248.089764 L288.699491,248.158984 L287.435915,240.562353 L283.218486,248.089764 Z M284.768252,236.940187 L290.093247,237.006307 L292.704086,254.934273 L288.669529,254.884683 L288.184969,251.219125 L281.627393,251.138541 L279.731512,254.776204 L275.839533,254.72868 L284.768252,236.940187 Z" id="Fill-61" fill="#414B4F"></path>
                <polygon id="Fill-63" fill="#414B4F" points="249.628342 235.176628 243.931402 247.663079 242.038622 235.064016 241.729702 235.05885 234.132749 234.945206 238.043325 238.276028 240.919691 253.567438 246.137236 253.523013 254.449147 235.248947"></polygon>
                <path d="M22.1853127,161.85855 C45.5743802,174.599153 79.2890217,176.414369 97.3975201,153.937516 C107.336686,141.598802 115.495687,126.785733 124.330386,113.460377 C134.543343,98.0563562 141.680532,89.0216035 157.395159,79.1706753 C171.384379,70.4014379 190.507458,64.3999653 205.101087,64.8514446" id="Stroke-65" stroke="#404A4E"></path>
                <path d="M26.2146008,175.279368 C50.294864,187.449681 84.2739988,187.877398 101.486732,163.851878 C110.935139,150.663929 118.483532,134.993359 126.776846,120.831165 C136.363698,104.460131 143.140308,94.8085977 158.504688,83.9451986 C170.100036,75.7462509 183.533408,68.9193046 200.193391,66.9821792" id="Stroke-67" stroke="#404A4E"></path>
                <path d="M277.204464,83.1854322 C277.679725,84.2175326 277.1869,85.358112 276.110329,85.7207419 L217.003289,105.583767 C215.926719,105.945364 214.694138,105.38024 214.264336,104.32851 L199.811219,68.8951293 C199.382451,67.8433993 199.909371,66.6769916 200.982842,66.3040304 L258.035926,46.4812973 C259.109397,46.1083361 260.377105,46.6476318 260.852367,47.6797322 L277.204464,83.1854322 Z" id="Stroke-69" stroke="#404A4E"></path>
                <path d="M170.446151,120.706156 C170.446151,126.222056 165.97456,130.736849 160.458426,130.902151 C154.943326,131.068485 150.471734,126.640475 150.471734,121.124575 C150.471734,115.608675 154.943326,111.093881 160.458426,110.92858 C165.97456,110.763279 170.446151,115.190256 170.446151,120.706156 Z" id="Stroke-71" stroke="#404A4E"></path>
                <path d="M152.161806,147.756381 C152.161806,150.293757 150.10475,152.374488 147.567266,152.45094 C145.029783,152.527392 142.972727,150.494185 142.972727,147.956809 C142.972727,145.419433 145.029783,143.338702 147.567266,143.26225 C150.10475,143.185798 152.161806,145.219005 152.161806,147.756381 Z" id="Stroke-73" stroke="#404A4E"></path>
                <path d="M110.612684,115.815198 C110.612684,118.352574 108.555628,120.433305 106.018145,120.509757 C103.480661,120.586209 101.423605,118.553002 101.423605,116.015626 C101.423605,113.47825 103.480661,111.397519 106.018145,111.321068 C108.555628,111.244616 110.612684,113.277822 110.612684,115.815198 Z" id="Stroke-75" stroke="#404A4E"></path>
                <path d="M261.62632,171.889451 C262.02616,170.228172 262.674995,168.636113 263.54493,167.156666 C259.544468,164.727769 254.612079,163.845473 249.637331,165.097631 C239.954393,167.534793 233.989861,176.934242 236.535609,186.365718 C239.082391,195.798227 248.506002,201.402976 258.212702,199.046398 C263.198816,197.836599 267.278833,194.690707 269.707833,190.706945 C267.966929,189.675877 266.41303,188.368963 265.109161,186.781037" id="Stroke-77" stroke="#414B4F"></path>
                <path d="M271.872133,185.034525 C271.512587,187.059467 270.770766,188.965598 269.707626,190.707461 C273.687425,193.067138 278.633245,193.995925 283.620392,192.786126 C293.326059,190.429548 299.292658,181.036298 296.745876,171.604822 C294.199094,162.172313 284.661834,156.161542 274.978897,158.598704 C270.003115,159.850862 265.944794,163.071139 263.544724,167.157182 C264.993238,168.036379 266.316738,169.11807 267.472864,170.376426" id="Stroke-79" stroke="#414B4F"></path>
                <path d="M261.18598,174.61558 C264.745276,173.697124 266.527506,173.232214 270.085769,172.314792" id="Stroke-81" stroke="#414B4F"></path>
                <path d="M262.11119,178.075647 C265.670486,177.157192 267.452717,176.692282 271.010979,175.774859" id="Stroke-83" stroke="#414B4F"></path>
                <path d="M262.810961,180.669536 C266.370257,179.75108 268.152488,179.28617 271.71075,178.368747" id="Stroke-85" stroke="#414B4F"></path>
                <path d="M272.641126,181.827369 C269.081831,182.744791 267.300633,183.209701 263.741337,184.128157" id="Stroke-87" stroke="#414B4F"></path>
                <path d="M265.032912,186.4899 C266.492792,188.669812 267.894813,189.388873 269.637783,190.420973 C270.697823,188.678077 271.593588,187.360832 271.796091,184.742871" id="Stroke-89" stroke="#414B4F"></path>
                <path d="M245.209236,180.622425 C245.95829,180.44266 246.333333,180.351744 247.084453,180.169912 C246.780699,182.650466 246.635021,183.88816 246.335399,186.364581 C245.850839,186.481325 245.608043,186.538148 245.123482,186.653858 C245.324952,184.980182 245.424137,184.143344 245.62664,182.467601 C245.641104,182.347758 245.662801,182.178324 245.692763,181.960333 C245.720659,181.743375 245.742356,181.574974 245.75682,181.457197 C245.032563,183.650539 244.67405,184.744628 243.952893,186.929705 C243.447669,187.047482 243.195574,187.106371 242.69035,187.223115 C242.471316,185.260161 242.359733,184.278684 242.141733,182.314698 C242.127268,182.431442 242.108671,182.598809 242.084908,182.813701 C242.062178,183.029626 242.043581,183.198027 242.029116,183.31787 C241.82868,184.988447 241.730528,185.822186 241.530092,187.490697 C241.047598,187.601242 240.805834,187.655998 240.323341,187.764477 C240.617796,185.301487 240.760375,184.069992 241.059996,181.600802 C241.816282,181.426203 242.193392,181.337353 242.950711,181.159654 C243.166645,182.997599 243.278228,183.916055 243.498294,185.751933 C244.181225,183.704262 244.52114,182.678361 245.209236,180.622425" id="Fill-91" fill="#414B4F"></path>
                <path d="M250.887682,183.091821 C250.805028,183.158974 250.722373,183.21683 250.639719,183.265387 C250.557065,183.314978 250.446515,183.3687 250.30497,183.427589 C250.192353,183.475113 250.136562,183.498875 250.023946,183.546399 C249.760485,183.654878 249.569348,183.755092 249.449499,183.847041 C249.245963,184.003044 249.130247,184.19624 249.102351,184.425596 C249.077555,184.63119 249.117849,184.764464 249.223233,184.827485 C249.327584,184.890506 249.463964,184.900837 249.630305,184.860545 C249.893765,184.795458 250.145861,184.660117 250.386591,184.453491 C250.627321,184.246864 250.777132,183.94209 250.833957,183.538134 C250.855653,183.359402 250.865985,183.270553 250.887682,183.091821 M250.21715,182.713694 C250.444449,182.63001 250.609757,182.554591 250.712042,182.489504 C250.893881,182.37276 250.995132,182.238452 251.013729,182.083482 C251.036459,181.895452 250.985834,181.781807 250.861852,181.743581 C250.736838,181.705355 250.5457,181.717753 250.287406,181.780774 C249.998116,181.853094 249.782182,181.97397 249.647869,182.143404 C249.548684,182.26738 249.474295,182.423383 249.424703,182.607281 C248.95874,182.721959 248.725242,182.778781 248.259279,182.892426 C248.333668,182.485371 248.486578,182.125841 248.719043,181.820033 C249.086854,181.33756 249.663367,180.999725 250.444449,180.806529 C250.952772,180.680487 251.392906,180.668089 251.763816,180.768303 C252.134727,180.86955 252.286604,181.197054 252.219447,181.750813 C252.117163,182.59385 252.066537,183.015369 251.964253,183.858406 C251.946689,184.005111 251.923959,184.184876 251.907428,184.388403 C251.89503,184.540274 251.908461,184.64462 251.941523,184.690078 C251.974584,184.736569 252.02831,184.768596 252.102698,184.785127 C252.0934,184.856413 252.089267,184.891539 252.081002,184.961792 C251.555114,185.093 251.291654,185.158088 250.765767,185.288263 C250.740971,185.204579 250.726506,185.122961 250.72134,185.045476 C250.717208,184.967991 250.72134,184.775828 250.72134,184.775828 C250.706876,184.76963 250.319434,185.19838 250.085936,185.378145 C249.808012,185.590971 249.501158,185.737676 249.172608,185.81826 C248.752104,185.92054 248.419421,185.886447 248.173525,185.71598 C247.928662,185.545513 247.832577,185.242805 247.885269,184.807855 C247.953458,184.244798 248.222084,183.78402 248.693213,183.423457 C248.952541,183.226128 249.319319,183.041197 249.796647,182.866598 C249.965054,182.805643 250.048742,182.775682 250.21715,182.713694" id="Fill-93" fill="#414B4F"></path>
                <path d="M254.603917,182.906993 C254.603917,183.114653 254.641112,183.25206 254.7155,183.32128 C254.845681,183.442156 255.11534,183.453521 255.522412,183.350207 C255.762109,183.289252 255.956346,183.206602 256.106157,183.100189 C256.254935,182.993776 256.338622,182.870833 256.355153,182.730327 C256.371684,182.594987 256.327257,182.506137 256.222906,182.464812 C256.117522,182.423487 255.706317,182.413155 254.999624,182.422453 C254.491301,182.428652 254.137954,182.3553 253.946816,182.217893 C253.756712,182.080486 253.680257,181.831501 253.72365,181.471971 C253.775309,181.04632 253.988144,180.639265 254.361121,180.248741 C254.735131,179.858216 255.227956,179.585469 255.837531,179.430499 C256.417143,179.283794 256.875874,179.277595 257.21269,179.413969 C257.549506,179.550342 257.710681,179.893343 257.696217,180.44297 C257.211657,180.566946 256.969893,180.628934 256.485333,180.751877 C256.486366,180.602072 256.457437,180.489461 256.39648,180.418174 C256.28593,180.289033 256.065863,180.265271 255.744545,180.346888 C255.480052,180.414042 255.287881,180.502891 255.164932,180.612404 C255.043018,180.722949 254.975861,180.832461 254.96243,180.941973 C254.945899,181.080413 254.994458,181.164097 255.103975,181.197157 C255.215558,181.230217 255.628829,181.230217 256.32829,181.209555 C256.79322,181.196124 257.142434,181.277742 257.352169,181.444076 C257.561904,181.611444 257.646624,181.872826 257.604264,182.219959 C257.548472,182.675571 257.331505,183.091924 256.954396,183.467985 C256.577286,183.844045 256.030735,184.121958 255.315776,184.302756 C254.586353,184.486654 254.066665,184.470124 253.755679,184.2511 C253.445725,184.033109 253.318645,183.688042 253.376503,183.2159 C253.867262,183.092957 254.113158,183.030969 254.603917,182.906993" id="Fill-95" fill="#414B4F"></path>
                <path d="M258.912576,179.644667 C258.954937,179.301667 258.9756,179.129134 259.017961,178.786133 C259.276255,178.720013 259.405402,178.686953 259.66473,178.619799 C259.727753,178.105298 259.758749,177.848048 259.821772,177.333548 C260.3022,177.210605 260.54293,177.148617 261.023358,177.024641 C260.960334,177.539141 260.928305,177.796391 260.865282,178.310892 C261.166969,178.233407 261.317813,178.194148 261.618468,178.116663 C261.576108,178.460696 261.555444,178.632196 261.514117,178.975197 C261.212429,179.053715 261.061585,179.091941 260.760931,179.169426 C260.641082,180.144704 260.582191,180.63131 260.463376,181.606588 C260.440646,181.795651 260.449944,181.90723 260.492305,181.94029 C260.535698,181.975417 260.680343,181.95992 260.927272,181.896898 C260.963433,181.8876 261.002694,181.876236 261.044021,181.863838 C261.085348,181.852474 261.125642,181.840076 261.165936,181.826645 C261.122543,182.187209 261.099813,182.368007 261.056419,182.727538 C260.824988,182.795725 260.709272,182.829818 260.478873,182.896972 C259.903394,183.064339 259.524217,183.063306 259.340312,182.902137 C259.22253,182.798824 259.179136,182.603562 259.214264,182.316351 C259.35271,181.180937 259.4209,180.613747 259.559345,179.478333 C259.301051,179.545487 259.170871,179.578547 258.912576,179.644667" id="Fill-97" fill="#414B4F"></path>
                <path d="M264.083319,178.538698 C263.890115,178.758755 263.753735,179.024271 263.672114,179.336277 C264.508988,179.120352 264.927425,179.011873 265.764298,178.794915 C265.780829,178.480842 265.703341,178.265951 265.529767,178.15024 C265.356193,178.034529 265.126828,178.013866 264.840638,178.087219 C264.528618,178.167803 264.276523,178.31864 264.083319,178.538698 M266.026725,177.02619 C266.333579,177.087145 266.572243,177.248314 266.745817,177.501432 C266.89976,177.725622 266.986547,178.012833 266.998945,178.359966 C267.006177,178.563493 266.981381,178.865168 266.927656,179.264991 C265.575227,179.615223 264.898496,179.789823 263.546067,180.139022 C263.508872,180.5967 263.632854,180.878745 263.912845,180.987224 C264.083319,181.053345 264.300286,181.055411 264.560647,180.988257 C264.837538,180.915938 265.071036,180.78783 265.261141,180.601866 C265.364459,180.501652 265.460544,180.373543 265.549397,180.219606 C266.045323,180.091498 266.292252,180.027443 266.788177,179.899335 C266.723087,180.18138 266.536082,180.498552 266.23646,180.849818 C265.765332,181.401511 265.15679,181.780671 264.407737,181.973867 C263.789897,182.134003 263.268142,182.085445 262.842473,181.829228 C262.416804,181.571978 262.255628,181.018218 262.359979,180.16485 C262.457098,179.366238 262.744321,178.698834 263.223715,178.161604 C263.701043,177.625408 264.280656,177.268977 264.96152,177.093344 C265.365492,176.987964 265.720905,176.966269 266.026725,177.02619" id="Fill-99" fill="#414B4F"></path>
                <path d="M271.066668,175.52856 C271.082165,175.526494 271.11626,175.519262 271.171018,175.507897 C271.110061,176.001735 271.080099,176.249687 271.020175,176.743525 C270.943719,176.75489 270.87553,176.767287 270.817672,176.779685 C270.757748,176.792082 270.710221,176.803447 270.673027,176.812745 C270.184334,176.938787 269.837187,177.180541 269.631584,177.540071 C269.515868,177.742565 269.435281,178.028743 269.390854,178.397572 C269.283404,179.279868 269.229678,179.721016 269.121195,180.603312 C268.632502,180.729354 268.387639,180.792375 267.898946,180.919451 C268.125212,179.073241 268.236795,178.150653 268.462028,176.305476 C268.925924,176.185633 269.157356,176.125711 269.621252,176.005868 C269.581992,176.328205 269.561328,176.488341 269.522067,176.810679 C269.7473,176.454248 269.937405,176.202163 270.089282,176.053392 C270.339311,175.807506 270.646164,175.634973 271.009843,175.540958 C271.032573,175.535792 271.05117,175.531659 271.066668,175.52856" id="Fill-101" fill="#414B4F"></path>
                <path d="M273.295231,174.11792 C273.863478,173.47531 274.538143,173.053792 275.317159,172.85543 C276.360668,172.589915 277.085958,172.741786 277.478566,173.305877 C277.698633,173.620982 277.793685,173.975347 277.765789,174.35864 C277.241968,174.490881 276.980574,174.558034 276.456753,174.691309 C276.409227,174.413396 276.330706,174.215034 276.218089,174.096224 C276.018686,173.885464 275.689103,173.83794 275.231405,173.954684 C274.764409,174.073495 274.372835,174.35864 274.056683,174.809086 C273.739497,175.260565 273.540094,175.836021 273.45434,176.534419 C273.36962,177.23385 273.448141,177.721489 273.689905,177.996303 C273.931668,178.271116 274.272617,178.352734 274.710684,178.240122 C275.160116,178.125444 275.520695,177.885758 275.79242,177.529326 C275.941198,177.33613 276.080677,177.067516 276.205691,176.724515 C276.72538,176.591241 276.98574,176.525121 277.506462,176.39288 C277.311191,177.100576 276.957844,177.725622 276.444355,178.268017 C275.931899,178.811445 275.314059,179.175108 274.592902,179.360039 C273.700236,179.589395 273.031771,179.481949 272.59267,179.038735 C272.152537,178.593454 271.993428,177.865095 272.116376,176.858823 C272.248622,175.7699 272.642263,174.855577 273.295231,174.11792" id="Fill-103" fill="#414B4F"></path>
                <path d="M281.662417,175.23422 C281.579763,175.301374 281.496076,175.359229 281.414455,175.40882 C281.331801,175.457377 281.220217,175.512133 281.079705,175.572055 C280.967089,175.619579 280.910264,175.643341 280.797648,175.690865 C280.534188,175.800377 280.342017,175.901625 280.222168,175.994607 C280.017599,176.152676 279.901883,176.345872 279.873987,176.577294 C279.849191,176.782887 279.889485,176.916162 279.994869,176.97815 C280.09922,177.040138 280.235599,177.050469 280.402974,177.009144 C280.667468,176.943023 280.919563,176.805616 281.161326,176.597957 C281.402057,176.390297 281.550834,176.084489 281.608692,175.680534 C281.630389,175.501802 281.640721,175.412952 281.662417,175.23422 M280.990852,174.857127 C281.219184,174.773443 281.384493,174.698024 281.486777,174.631903 C281.668616,174.515159 281.769868,174.380852 281.788465,174.225882 C281.811195,174.037852 281.760569,173.924207 281.636588,173.884948 C281.511573,173.846722 281.320436,173.860153 281.062141,173.924207 C280.772852,173.996526 280.556918,174.118436 280.421571,174.28787 C280.322386,174.412879 280.247998,174.568882 280.197372,174.75278 C279.730376,174.870557 279.496878,174.928413 279.029881,175.04619 C279.10427,174.638102 279.258214,174.276506 279.491712,173.968632 C279.859523,173.484092 280.438102,173.143158 281.219184,172.948929 C281.727507,172.821854 282.167641,172.810489 282.537518,172.912769 C282.908429,173.014016 283.060306,173.34152 282.99315,173.895279 C282.891898,174.737283 282.841273,175.158802 282.738988,176.000805 C282.721424,176.14751 282.698694,176.327276 282.682163,176.530803 C282.669765,176.682674 282.683196,176.785987 282.716258,176.832478 C282.74932,176.878969 282.803045,176.909963 282.877434,176.927526 C282.868135,176.998812 282.864002,177.033939 282.855737,177.104192 C282.32985,177.2354 282.06639,177.300487 281.540502,177.431695 C281.514673,177.348012 281.500208,177.267427 281.496076,177.188909 C281.49091,177.111424 281.496076,176.919261 281.496076,176.919261 C281.480578,176.914095 281.093137,177.343879 280.859638,177.524677 C280.580681,177.739569 280.273827,177.88834 279.94321,177.970991 C279.521674,178.077404 279.187958,178.04641 278.942061,177.878009 C278.696165,177.709608 278.60008,177.4069 278.652772,176.970918 C278.721995,176.404761 278.992687,175.939851 279.464849,175.575154 C279.724177,175.376793 280.091988,175.188762 280.570349,175.012097 C280.738757,174.950109 280.823477,174.919115 280.990852,174.857127" id="Fill-105" fill="#414B4F"></path>
                <path d="M287.388802,171.446959 C287.4043,171.444893 287.438395,171.438694 287.49212,171.428363 C287.433229,171.919101 287.403267,172.163954 287.344376,172.654693 C287.268954,172.665024 287.201797,172.675355 287.143939,172.68672 C287.084015,172.698084 287.036489,172.707382 286.999295,172.716681 C286.514734,172.832391 286.170686,173.067946 285.966117,173.422311 C285.852468,173.621705 285.77188,173.904784 285.728486,174.271546 C285.623102,175.147644 285.57041,175.586725 285.463993,176.462823 C284.977367,176.581633 284.73457,176.641555 284.247943,176.760365 C284.47111,174.924487 284.580627,174.008097 284.801726,172.174285 C285.262524,172.061674 285.492922,172.005885 285.953719,171.895339 C285.914458,172.214578 285.895861,172.374713 285.8566,172.693952 C286.079767,172.343719 286.267805,172.095767 286.418649,171.950095 C286.666611,171.710408 286.971399,171.544074 287.331978,171.458324 C287.354708,171.453158 287.373305,171.449026 287.388802,171.446959" id="Fill-107" fill="#414B4F"></path>
                <path d="M291.125185,173.906954 C291.332853,173.614577 291.459934,173.268477 291.50746,172.869688 C291.573584,172.311795 291.479565,171.942967 291.225403,171.771467 C291.069393,171.666087 290.874123,171.640259 290.643724,171.693982 C290.292444,171.775599 290.018652,171.967762 289.822348,172.27047 C289.626044,172.572145 289.505163,172.920311 289.457637,173.310836 C289.407011,173.733387 289.450404,174.050559 289.587817,174.264418 C289.72523,174.478277 289.963893,174.544397 290.303809,174.464846 C290.644757,174.385294 290.918549,174.19933 291.125185,173.906954 M291.219204,170.724902 C291.420673,170.796189 291.57565,170.924297 291.685167,171.108195 C291.789518,170.237263 291.841177,169.803347 291.946561,168.933449 C292.432154,168.822904 292.675984,168.767114 293.161577,168.658635 C292.865055,171.117493 292.721444,172.346922 292.426988,174.810946 C291.959992,174.918391 291.726494,174.972114 291.259498,175.080593 C291.28946,174.827476 291.304958,174.701433 291.33492,174.448316 C291.131384,174.759289 290.91235,175.002075 290.677819,175.175642 C290.444321,175.350241 290.163297,175.47525 289.837846,175.552735 C289.29956,175.678778 288.872858,175.570299 288.557739,175.226265 C288.241587,174.881199 288.124838,174.369797 288.206459,173.693095 C288.300478,172.912046 288.55464,172.254973 288.969977,171.722909 C289.385314,171.189812 289.894671,170.854044 290.499079,170.713538 C290.777004,170.649484 291.017734,170.652583 291.219204,170.724902" id="Fill-109" fill="#414B4F"></path>
                <path d="M298.250285,258.628965 C298.231688,259.765412 297.286331,260.681802 296.149836,260.665272 L229.250573,259.69206 C228.115111,259.67553 227.272038,258.736411 227.378456,257.60513 L229.832252,231.585662 C229.938669,230.454381 230.956349,229.53076 232.092844,229.533859 L296.666425,229.696061 C297.80292,229.698127 298.717281,230.631047 298.697651,231.766461 L298.250285,258.628965 Z" id="Stroke-111" stroke="#414B4F"></path>
                <path d="M230.370537,219.541805 L186.287962,263.966546" id="Stroke-113" stroke="#414B4F"></path>
                <path d="M223.827012,220.919282 L181.413018,263.675513" id="Stroke-115" stroke="#414B4F"></path>
                <path d="M229.595654,217.432456 L217.024986,165.044321 L43.7094952,222.985549 C43.7094952,222.985549 39.4052786,223.329582 38.1995607,218.163915 L32.1730376,197.673777 L38.0270201,248.641354 C38.0270201,248.641354 39.0601974,253.807021 44.9152131,252.773888 L229.595654,217.432456 Z" id="Fill-117" fill="#414B4F"></path>
            </g>
        </g>
    </g>
</svg>