<?xml version="1.0" encoding="UTF-8"?>
<svg width="28px" height="27px" viewBox="0 0 28 27" version="1.1" xmlns="http://www.w3.org/2000/svg" xmlns:xlink="http://www.w3.org/1999/xlink">
    <!-- Generator: Sketch 43.2 (39069) - http://www.bohemiancoding.com/sketch -->
    <title>safe-box</title>
    <desc>Created with Sketch.</desc>
    <defs></defs>
    <g id="Page-1" stroke="none" stroke-width="1" fill="none" fill-rule="evenodd">
        <g id="merchant" transform="translate(-884.000000, -132.000000)" fill-rule="nonzero" fill="#666666">
            <g id="safe-box" transform="translate(884.555556, 132.000000)">
                <path d="M23.4042583,0 L3.54296901,0 C1.58569215,0 0,1.58602686 0,3.5426343 L0,23.4051508 C0,25.3618698 1.58569215,26.9477851 3.54296901,26.9477851 L23.4042583,26.9477851 C25.3615351,26.9477851 26.9478409,25.3618698 26.9478409,23.4051508 L26.9478409,3.5426343 C26.9477851,1.58602686 25.3615351,0 23.4042583,0 Z M24.4773409,21.8951033 C24.4773409,23.3192417 23.3185165,24.4776198 21.894657,24.4776198 L5.05257025,24.4776198 C3.62876653,24.4776198 2.46988636,23.3192417 2.46988636,21.8951033 L2.46988636,5.05268182 C2.46988636,3.62854339 3.62871074,2.47027686 5.05257025,2.47027686 L21.894657,2.47027686 C23.3184607,2.47027686 24.4773409,3.62854339 24.4773409,5.05268182 L24.4773409,21.8951033 Z" id="XMLID_106_"></path>
                <path d="M21.894657,4.26672521 L5.05257025,4.26672521 C4.61917562,4.26672521 4.26661364,4.61939876 4.26661364,5.05268182 L4.26661364,21.8951033 C4.26661364,22.3284421 4.61917562,22.6811157 5.05257025,22.6811157 L21.894657,22.6811157 C22.3278843,22.6811157 22.6811157,22.3284421 22.6811157,21.8951033 L22.6811157,5.05268182 C22.6811157,4.61939876 22.3278843,4.26672521 21.894657,4.26672521 Z M20.2158595,14.3721446 L18.8105764,14.3721446 C18.6705558,15.2094236 18.3386901,15.9809318 17.8594959,16.641595 L18.8606157,17.6428264 C19.2113926,17.9938264 19.2113926,18.5622211 18.8606157,18.9130537 C18.6851157,19.0885537 18.4551136,19.1762479 18.2254463,19.1762479 C17.9954442,19.1762479 17.7657769,19.0885537 17.5904442,18.9130537 L16.5812913,17.9042913 C15.9211302,18.3692603 15.1525785,18.6872913 14.3212128,18.8182748 L14.3212128,20.2670145 C14.3212128,20.7630558 13.9193926,21.1652665 13.4225702,21.1652665 C12.9260826,21.1652665 12.5244298,20.7630558 12.5244298,20.2670145 L12.5244298,18.8029339 C11.7069545,18.6573347 10.9543017,18.3288161 10.3068595,17.8599421 L9.25425,18.9126074 C9.07875,19.0881074 8.84863636,19.1758017 8.61896901,19.1758017 C8.38946901,19.1758017 8.15929959,19.0881074 7.98402273,18.9126074 C7.63319008,18.561719 7.63319008,17.9933244 7.98402273,17.6423802 L9.0434938,16.5827975 C8.5875062,15.9353554 8.27338017,15.1845434 8.13653926,14.3721446 L6.62972727,14.3721446 C6.13296074,14.3721446 5.7311405,13.9699339 5.7311405,13.4738926 C5.7311405,12.9778512 6.13296074,12.5756405 6.62972727,12.5756405 L8.13653926,12.5756405 C8.27338017,11.7637438 8.5875062,11.0133781 9.0434938,10.3659917 L7.98402273,9.30624174 C7.63319008,8.95540909 7.63319008,8.38695868 7.98402273,8.03607025 C8.33457645,7.6852376 8.90336157,7.6852376 9.25425,8.03607025 L10.3057996,9.08828926 C10.9543017,8.61941529 11.7068988,8.29095248 12.5244298,8.14529752 L12.5244298,6.68082645 C12.5244298,6.18478512 12.9260826,5.78257438 13.4225702,5.78257438 C13.9193926,5.78257438 14.3212128,6.18478512 14.3212128,6.68082645 L14.3212128,8.1300124 C15.1525227,8.26110744 15.9211302,8.57908264 16.5822397,9.04455372 L17.5913368,8.03528926 C17.9420021,7.68445661 18.5103409,7.68445661 18.8615083,8.03528926 C19.2123409,8.3861219 19.2123409,8.95457231 18.8615083,9.30551653 L17.8594401,10.30725 C18.3386343,10.9677459 18.6695517,11.7389194 18.8105207,12.5756963 L20.2158037,12.5756963 C20.7121798,12.5756963 21.114,12.977907 21.114,13.4739483 C21.114,13.9699339 20.7122355,14.3721446 20.2158595,14.3721446 Z" id="XMLID_103_"></path>
                <path d="M13.4736136,9.85321488 C11.477343,9.85321488 9.85265702,11.477845 9.85265702,13.4743388 C9.85265702,15.4708326 11.477343,17.0950165 13.4736136,17.0950165 C15.4703306,17.0950165 17.094905,15.4708326 17.094905,13.4743388 C17.094905,11.477845 15.4703306,9.85321488 13.4736136,9.85321488 Z M13.4736136,14.9125351 C12.6788988,14.9125351 12.0349711,14.268719 12.0349711,13.4743388 C12.0349711,12.6795682 12.6788988,12.0357521 13.4736136,12.0357521 C14.2683285,12.0357521 14.9122562,12.6795682 14.9122562,13.4743388 C14.9122562,14.268719 14.2683285,14.9125351 13.4736136,14.9125351 Z" id="XMLID_100_"></path>
            </g>
        </g>
    </g>
</svg>