<?xml version="1.0" encoding="utf-8"?>
<!-- Generator: Adobe Illustrator 17.0.0, SVG Export Plug-In . SVG Version: 6.00 Build 0)  -->
<!DOCTYPE svg PUBLIC "-//W3C//DTD SVG 1.1//EN" "http://www.w3.org/Graphics/SVG/1.1/DTD/svg11.dtd">
<svg version="1.1" xmlns="http://www.w3.org/2000/svg" xmlns:xlink="http://www.w3.org/1999/xlink" x="0px" y="0px" width="36.75px"
	 height="28.75px" viewBox="0 0 36.75 28.75" enable-background="new 0 0 36.75 28.75" xml:space="preserve">
<g id="圖層_3" display="none">
</g>
<g id="圖層_2" display="none">
</g>
<g id="圖層_1">
	<g>
		<g>
			<linearGradient id="SVGID_1_" gradientUnits="userSpaceOnUse" x1="27.5337" y1="0.3522" x2="27.5337" y2="20.9923">
				<stop  offset="0" style="stop-color:#EFD243"/>
				<stop  offset="0.2557" style="stop-color:#EFCE43"/>
				<stop  offset="0.5255" style="stop-color:#EEC144"/>
				<stop  offset="0.8008" style="stop-color:#ECAC46"/>
				<stop  offset="1" style="stop-color:#EA9847"/>
			</linearGradient>
			<path fill="url(#SVGID_1_)" d="M25.93,20.992c-0.259,0-0.517-0.099-0.715-0.296c-0.395-0.394-0.395-1.034,0-1.429l7.461-7.461
				c2.155-2.155,2.155-5.661,0-7.817c-2.156-2.155-5.662-2.155-7.817,0l-4.381,4.38c-0.395,0.395-1.034,0.395-1.429,0
				c-0.395-0.394-0.395-1.035,0-1.429l4.381-4.381c2.944-2.943,7.734-2.942,10.675,0c2.943,2.943,2.944,7.732,0.001,10.676
				l-7.461,7.461C26.448,20.894,26.189,20.992,25.93,20.992z"/>
			<linearGradient id="SVGID_2_" gradientUnits="userSpaceOnUse" x1="19.4035" y1="6.644" x2="19.4035" y2="9.3877">
				<stop  offset="0" style="stop-color:#EFD243"/>
				<stop  offset="0.2557" style="stop-color:#EFCE43"/>
				<stop  offset="0.5255" style="stop-color:#EEC144"/>
				<stop  offset="0.8008" style="stop-color:#ECAC46"/>
				<stop  offset="1" style="stop-color:#EA9847"/>
			</linearGradient>
			<path fill="url(#SVGID_2_)" d="M19.042,9.388c-0.259,0-0.517-0.099-0.715-0.296c-0.395-0.394-0.395-1.035,0-1.429L19.05,6.94
				c0.395-0.395,1.034-0.395,1.429,0c0.395,0.394,0.395,1.035,0,1.429l-0.722,0.722C19.559,9.289,19.301,9.388,19.042,9.388z"/>
			<linearGradient id="SVGID_3_" gradientUnits="userSpaceOnUse" x1="20.4207" y1="8.7623" x2="20.4207" y2="14.8495">
				<stop  offset="0" style="stop-color:#EFD243"/>
				<stop  offset="0.2557" style="stop-color:#EFCE43"/>
				<stop  offset="0.5255" style="stop-color:#EEC144"/>
				<stop  offset="0.8008" style="stop-color:#ECAC46"/>
				<stop  offset="1" style="stop-color:#EA9847"/>
			</linearGradient>
			<path fill="url(#SVGID_3_)" d="M18.388,14.849c-0.259,0-0.517-0.099-0.715-0.296c-0.395-0.395-0.395-1.035,0-1.429l4.066-4.066
				c0.395-0.395,1.034-0.395,1.429,0c0.395,0.395,0.395,1.035,0,1.429l-4.066,4.066C18.905,14.751,18.646,14.849,18.388,14.849z"/>
			<linearGradient id="SVGID_4_" gradientUnits="userSpaceOnUse" x1="23.3776" y1="10.8803" x2="23.3776" y2="17.1175">
				<stop  offset="0" style="stop-color:#EFD243"/>
				<stop  offset="0.2557" style="stop-color:#EFCE43"/>
				<stop  offset="0.5255" style="stop-color:#EEC144"/>
				<stop  offset="0.8008" style="stop-color:#ECAC46"/>
				<stop  offset="1" style="stop-color:#EA9847"/>
			</linearGradient>
			<path fill="url(#SVGID_4_)" d="M21.269,17.118c-0.259,0-0.517-0.099-0.715-0.296c-0.395-0.395-0.395-1.035,0-1.429l4.216-4.216
				c0.395-0.395,1.034-0.395,1.429,0c0.395,0.395,0.395,1.035,0,1.429l-4.216,4.216C21.787,17.019,21.528,17.118,21.269,17.118z"/>
			<linearGradient id="SVGID_5_" gradientUnits="userSpaceOnUse" x1="25.2748" y1="13.528" x2="25.2748" y2="19.3395">
				<stop  offset="0" style="stop-color:#EFD243"/>
				<stop  offset="0.2557" style="stop-color:#EFCE43"/>
				<stop  offset="0.5255" style="stop-color:#EEC144"/>
				<stop  offset="0.8008" style="stop-color:#ECAC46"/>
				<stop  offset="1" style="stop-color:#EA9847"/>
			</linearGradient>
			<path fill="url(#SVGID_5_)" d="M23.38,19.339c-0.259,0-0.517-0.099-0.715-0.296c-0.395-0.395-0.395-1.035,0-1.429l3.791-3.79
				c0.395-0.395,1.034-0.395,1.429,0c0.395,0.395,0.395,1.035,0,1.429l-3.791,3.79C23.897,19.241,23.638,19.339,23.38,19.339z"/>
		</g>
		<g>
			<linearGradient id="SVGID_6_" gradientUnits="userSpaceOnUse" x1="9.6537" y1="0.3521" x2="9.6537" y2="27.9871">
				<stop  offset="0" style="stop-color:#EFD243"/>
				<stop  offset="0.2557" style="stop-color:#EFCE43"/>
				<stop  offset="0.5255" style="stop-color:#EEC144"/>
				<stop  offset="0.8008" style="stop-color:#ECAC46"/>
				<stop  offset="1" style="stop-color:#EA9847"/>
			</linearGradient>
			<path fill="url(#SVGID_6_)" d="M17.839,27.987c-0.259,0-0.517-0.099-0.715-0.296L2.669,13.235
				c-1.426-1.425-2.211-3.321-2.211-5.337S1.243,3.985,2.669,2.56c2.944-2.944,7.732-2.944,10.675-0.001l4.381,4.381
				c0.395,0.394,0.395,1.035,0,1.429c-0.395,0.395-1.034,0.395-1.429,0l-4.381-4.381c-2.154-2.154-5.661-2.155-7.817,0
				C3.054,5.033,2.479,6.421,2.479,7.897c0,1.476,0.575,2.864,1.619,3.908l14.456,14.456c0.395,0.394,0.395,1.034,0,1.429
				C18.357,27.888,18.098,27.987,17.839,27.987z"/>
			<linearGradient id="SVGID_7_" gradientUnits="userSpaceOnUse" x1="18.0612" y1="6.644" x2="18.0612" y2="10.7681">
				<stop  offset="0" style="stop-color:#EFD243"/>
				<stop  offset="0.2557" style="stop-color:#EFCE43"/>
				<stop  offset="0.5255" style="stop-color:#EEC144"/>
				<stop  offset="0.8008" style="stop-color:#ECAC46"/>
				<stop  offset="1" style="stop-color:#EA9847"/>
			</linearGradient>
			<path fill="url(#SVGID_7_)" d="M19.113,10.768c-0.259,0-0.517-0.099-0.715-0.296l-2.103-2.103c-0.395-0.394-0.395-1.035,0-1.429
				c0.395-0.395,1.034-0.395,1.429,0l2.103,2.103c0.395,0.394,0.395,1.035,0,1.429C19.63,10.669,19.371,10.768,19.113,10.768z"/>
			<linearGradient id="SVGID_8_" gradientUnits="userSpaceOnUse" x1="20.9204" y1="10.701" x2="20.9204" y2="22.0424">
				<stop  offset="0" style="stop-color:#EFD243"/>
				<stop  offset="0.2557" style="stop-color:#EFCE43"/>
				<stop  offset="0.5255" style="stop-color:#EEC144"/>
				<stop  offset="0.8008" style="stop-color:#ECAC46"/>
				<stop  offset="1" style="stop-color:#EA9847"/>
			</linearGradient>
			<path fill="url(#SVGID_8_)" d="M25.58,22.042c-0.259,0-0.517-0.099-0.715-0.296l-9.32-9.32c-0.395-0.394-0.395-1.035,0-1.429
				c0.395-0.395,1.034-0.395,1.429,0l9.32,9.32c0.395,0.394,0.395,1.035,0,1.429C26.098,21.944,25.839,22.042,25.58,22.042z"/>
			<linearGradient id="SVGID_9_" gradientUnits="userSpaceOnUse" x1="17.9059" y1="10.8803" x2="17.9059" y2="24.5614">
				<stop  offset="0" style="stop-color:#EFD243"/>
				<stop  offset="0.2557" style="stop-color:#EFCE43"/>
				<stop  offset="0.5255" style="stop-color:#EEC144"/>
				<stop  offset="0.8008" style="stop-color:#ECAC46"/>
				<stop  offset="1" style="stop-color:#EA9847"/>
			</linearGradient>
			<path fill="url(#SVGID_9_)" d="M23.736,24.561c-0.259,0-0.517-0.099-0.715-0.296l-11.66-11.66c-0.395-0.394-0.395-1.035,0-1.429
				c0.395-0.395,1.034-0.395,1.429,0l11.66,11.66c0.395,0.394,0.395,1.035,0,1.429C24.253,24.463,23.994,24.561,23.736,24.561z"/>
			<linearGradient id="SVGID_10_" gradientUnits="userSpaceOnUse" x1="15.0257" y1="13.528" x2="15.0257" y2="26.3906">
				<stop  offset="0" style="stop-color:#EFD243"/>
				<stop  offset="0.2557" style="stop-color:#EFCE43"/>
				<stop  offset="0.5255" style="stop-color:#EEC144"/>
				<stop  offset="0.8008" style="stop-color:#ECAC46"/>
				<stop  offset="1" style="stop-color:#EA9847"/>
			</linearGradient>
			<path fill="url(#SVGID_10_)" d="M20.446,26.391c-0.259,0-0.517-0.099-0.715-0.296L8.89,15.253c-0.395-0.394-0.395-1.035,0-1.429
				c0.395-0.395,1.034-0.395,1.429,0l10.841,10.841c0.395,0.394,0.395,1.035,0,1.429C20.963,26.292,20.705,26.391,20.446,26.391z"/>
		</g>
	</g>
</g>
<g id="圖層_4" display="none">
</g>
</svg>
