<?xml version="1.0" encoding="UTF-8"?>
<svg width="380px" height="380px" viewBox="0 0 380 380" version="1.1" xmlns="http://www.w3.org/2000/svg" xmlns:xlink="http://www.w3.org/1999/xlink">
    <!-- Generator: Sketch 43.2 (39069) - http://www.bohemiancoding.com/sketch -->
    <title>Page 1</title>
    <desc>Created with Sketch.</desc>
    <defs></defs>
    <g id="Page-1" stroke="none" stroke-width="1" fill="none" fill-rule="evenodd">
        <g id="index" transform="translate(-1041.000000, -290.000000)">
            <g id="Group-3" transform="translate(498.000000, 286.000000)">
                <g id="Page-1" transform="translate(733.000000, 193.000000) rotate(-1.000000) translate(-733.000000, -193.000000) translate(546.000000, 4.000000)">
                    <path d="M57.7904,331.979 L60.8524,347.334 C62.7774,356.841 72.1594,363.964 81.8084,362.01 L209.8724,334.085 C219.5214,332.131 225.7824,321.841 223.8574,312.334 L199.4744,193.777 L199.2504,192.799 L198.9164,192.091" id="Stroke-1" stroke="#424C50"></path>
                    <path d="M35.75,221.3929 C28.637,216.2159 18.914,221.0929 15.161,228.6739 C11.237,236.6019 13.251,244.5959 17.699,251.5509 C22.446,258.9729 28.829,265.0639 34.686,271.5499 C37.426,274.5849 45.078,284.7399 48.673,286.0509" id="Stroke-3" stroke="#669966"></path>
                    <path d="M25.0623,167.6742 C12.0923,171.0692 3.3673,185.2642 11.0603,197.6842 C17.0963,207.4282 33.1373,207.6842 35.4683,220.3302" id="Stroke-5" stroke="#669966"></path>
                    <path d="M40.9596,247.9269 C40.2926,252.4809 37.6816,256.7679 33.5626,258.6739" id="Stroke-7" stroke="#669966"></path>
                    <path d="M50.2969,294.2054 L50.0949,293.3894 L0.8479,46.4314 C-1.0771,36.9244 5.1839,26.6344 14.8329,24.6804 L141.8539,0.8234 C151.5029,-1.1296 160.8849,5.9934 162.8099,15.4994 L186.3849,130.1294 L186.7499,131.6744" id="Stroke-9" stroke="#424C50"></path>
                    <path d="M187.2908,149.6479 L160.2958,18.3429 C158.4008,8.9849 149.3398,2.9219 140.0568,4.8019 L17.8438,27.7139 C8.5608,29.5939 2.5718,38.7039 4.4668,48.0619 L54.3518,298.1289" id="Stroke-11" stroke="#424C50"></path>
                    <path d="M59.6798,324.8384 L63.5548,344.2634 C65.4498,353.6214 74.5108,359.6844 83.7938,357.8044 L206.9928,330.8954 C216.2758,329.0154 222.2648,319.9054 220.3698,310.5474 L193.7248,180.9454" id="Stroke-13" stroke="#424C50"></path>
                    <polygon id="Fill-15" fill="#FFFFFF" points="159.2289 36.1742 14.5619 64.1742 67.2289 323.5072 209.2289 292.1742"></polygon>
                    <polygon id="Stroke-17" stroke="#424C50" points="159.2289 36.1742 14.5619 64.1742 67.2289 323.5072 209.2289 292.1742"></polygon>
                    <polygon id="Fill-19" points="156.1241 41.9675 19.9281 68.9035 69.5111 318.3805 203.1961 288.2385"></polygon>
                    <polygon id="Stroke-21" stroke="#424C50" points="156.1241 41.9675 19.9281 68.9035 69.5111 318.3805 203.1961 288.2385"></polygon>
                    <path d="M54.3123,35.3825 C54.3123,37.0165 55.6553,38.3405 57.3123,38.3405 C58.9693,38.3405 60.3123,37.0165 60.3123,35.3825 C60.3123,33.7485 58.9693,32.4245 57.3123,32.4245 C55.6553,32.4245 54.3123,33.7485 54.3123,35.3825 Z" id="Stroke-23" stroke="#545B5E"></path>
                    <path d="M71.7377,32.6315 C71.9837,33.9845 73.5127,34.8495 75.1367,34.5545 L91.7807,31.5295 C93.4037,31.2335 94.5307,29.8855 94.2847,28.5325 C94.0387,27.1805 92.5097,26.3145 90.8857,26.6095 L74.2427,29.6355 C72.6187,29.9305 71.4917,31.2785 71.7377,32.6315 Z" id="Stroke-25" stroke="#545B5E"></path>
                    <path d="M231.5623,259.1742 C232.0623,255.6742 227.0623,245.6742 227.0623,245.6742 C218.5623,233.1742 209.5623,202.6742 209.5623,202.6742 C187.0003,190.8412 186.5623,137.6742 186.5623,137.6742 C184.5623,126.6742 194.0623,127.1742 194.0643,127.1752 C201.7083,128.0072 209.7173,140.2382 214.4343,147.1972 C216.7443,150.6062 218.7943,154.3162 221.6893,157.2792 C226.1083,161.8002 231.9773,163.9692 237.0763,167.5492 C242.8123,171.5752 246.5663,178.3522 250.4493,184.2022 C258.5663,196.4292 267.2973,208.3782 275.4513,220.7022 C278.8853,225.8922 281.3463,230.0092 285.5923,234.6882 C295.3053,245.3882 301.0503,258.0382 309.5363,269.7852 C316.8223,279.8702 324.1333,290.9432 329.6853,302.0712 C335.2943,313.3122 341.3053,324.6252 347.5903,335.4502 C353.6083,345.8172 363.0403,351.3182 373.5623,356.1742" id="Stroke-27" stroke="#669966"></path>
                    <path d="M189.2083,128.5492 C202.4973,128.1702 205.6893,151.4232 218.0623,153.1742" id="Stroke-29" stroke="#669966"></path>
                    <path d="M225.5623,183.1742 C221.0373,186.3622 218.1803,188.4662 215.1973,193.1482 C213.5123,195.7942 211.5393,202.4882 210.0623,203.6742" id="Stroke-31" stroke="#669966"></path>
                    <path d="M209.0623,190.6742 C207.3783,192.7902 206.6673,199.0272 207.0623,199.6742" id="Stroke-33" stroke="#669966"></path>
                    <path d="M276.5623,261.6742 C261.3843,260.8102 233.5623,250.2562 223.0623,265.6742" id="Stroke-35" stroke="#669966"></path>
                    <path d="M223.5623,246.1742 C219.4963,249.7532 214.0873,254.8312 213.0623,260.1742" id="Stroke-37" stroke="#669966"></path>
                    <path d="M212.5623,223.6742 C211.5393,226.2282 209.8103,228.4362 207.0623,228.6742" id="Stroke-39" stroke="#669966"></path>
                    <path d="M220.0623,238.6742 C218.4053,242.0612 212.9363,244.2182 209.5623,243.1742" id="Stroke-41" stroke="#669966"></path>
                    <path d="M216.0623,331.6742 C211.6053,340.2732 232.2303,353.3772 231.0623,362.1742" id="Stroke-43" stroke="#669966"></path>
                    <path d="M202.0623,336.1742 C194.5663,344.2812 193.5953,357.3212 195.0623,367.1742" id="Stroke-45" stroke="#669966"></path>
                    <path d="M173.5623,342.1742 C170.6133,346.8742 165.8283,350.9542 162.1263,355.1242 C158.0093,359.7632 154.2623,365.6762 149.5623,369.6742" id="Stroke-47" stroke="#669966"></path>
                    <path d="M46.5623,291.6742 C65.0833,302.3182 62.0833,324.4372 54.5623,339.6742" id="Stroke-49" stroke="#669966"></path>
                    <path d="M87.0623,377.6742 C74.2563,369.1242 59.0883,364.1702 47.4573,353.8392 C42.0273,349.0172 37.8103,342.6792 34.5693,336.2662 C30.5343,328.2842 32.0223,319.2472 31.0743,310.6622 C30.5093,305.5552 29.9293,301.2862 33.5493,296.6762 C36.4103,293.0332 42.1963,289.9772 46.5623,291.6742 L47.0313,291.9552" id="Stroke-51" stroke="#669966"></path>
                    <path d="M34.0623,297.1742 C35.2733,300.9662 34.6053,324.5322 32.0623,324.6742" id="Stroke-53" stroke="#669966"></path>
                </g>
            </g>
        </g>
    </g>
</svg>