<?xml version="1.0" encoding="UTF-8"?>
<svg width="33px" height="27px" viewBox="0 0 33 27" version="1.1" xmlns="http://www.w3.org/2000/svg" xmlns:xlink="http://www.w3.org/1999/xlink">
    <!-- Generator: Sketch 43.2 (39069) - http://www.bohemiancoding.com/sketch -->
    <title>briefcase</title>
    <desc>Created with Sketch.</desc>
    <defs></defs>
    <g id="Page-1" stroke="none" stroke-width="1" fill="none" fill-rule="evenodd">
        <g id="merchant" transform="translate(-487.000000, -132.000000)" fill-rule="nonzero" fill="#666666">
            <g id="briefcase" transform="translate(487.888889, 132.000000)">
                <path d="M29.2761326,4.08423158 L22.6225029,4.08423158 L22.6225029,2.73682105 C22.6225029,1.25065263 21.4288967,0.0420631579 19.9610136,0.0420631579 L11.9766082,0.0420631579 C10.5087875,0.0420631579 9.31511891,1.25058947 9.31511891,2.73682105 L9.31511891,4.08416842 L2.66148928,4.08416842 C1.19360624,4.08423158 0,5.29275789 0,6.77892632 L0,10.8210316 C0,12.3072632 1.19360624,13.5157895 2.66148928,13.5157895 L13.307384,13.5157895 L13.307384,12.8420842 C13.307384,12.4697053 13.6049903,12.1683789 13.9727719,12.1683789 L17.9649747,12.1683789 C18.3327563,12.1683789 18.6303626,12.4697053 18.6303626,12.8420842 L18.6303626,13.5157895 L29.2762573,13.5157895 C30.7440156,13.5157895 31.9376218,12.3072632 31.9376218,10.8210316 L31.9376218,6.77892632 C31.9376218,5.29275789 30.7440156,4.08423158 29.2761326,4.08423158 Z M19.9610136,4.08423158 L11.9766082,4.08423158 L11.9766082,2.73682105 L19.9610136,2.73682105 L19.9610136,4.08423158 Z" id="Shape"></path>
                <path d="M31.5685302,14.2427368 C31.3417856,14.1289263 31.0708148,14.1552632 30.8706433,14.3091789 C30.3976296,14.6717053 29.8465809,14.8631368 29.2760702,14.8631368 L18.6303002,14.8631368 L18.6303002,16.8841895 C18.6303002,17.2565684 18.332694,17.5578947 17.9649123,17.5578947 L13.9727096,17.5578947 C13.6049279,17.5578947 13.3073216,17.2565684 13.3073216,16.8841895 L13.3073216,14.8631368 L2.66148928,14.8631368 C2.09097856,14.8631368 1.5399922,14.6717053 1.06691618,14.3091789 C0.866120858,14.1539368 0.595836257,14.1276 0.36902924,14.2427368 C0.14297076,14.3566105 0,14.5901053 0,14.8460842 L0,24.2947579 C0,25.7809263 1.19360624,26.9895158 2.66148928,26.9895158 L29.2761949,26.9895158 C30.7440156,26.9895158 31.9376842,25.7809895 31.9376842,24.2947579 L31.9376842,14.8460842 C31.9376218,14.5901053 31.7946511,14.3566105 31.5685302,14.2427368 Z" id="Shape"></path>
            </g>
        </g>
    </g>
</svg>