<?xml version="1.0" encoding="UTF-8"?>
<svg width="33px" height="27px" viewBox="0 0 33 27" version="1.1" xmlns="http://www.w3.org/2000/svg" xmlns:xlink="http://www.w3.org/1999/xlink">
    <!-- Generator: Sketch 43.2 (39069) - http://www.bohemiancoding.com/sketch -->
    <title>Group 4 Copy</title>
    <desc>Created with Sketch.</desc>
    <defs></defs>
    <g id="Page-1" stroke="none" stroke-width="1" fill="none" fill-rule="evenodd">
        <g id="Artboard" transform="translate(-1120.000000, -42.000000)" fill-rule="nonzero" fill="#5E99B3">
            <g id="Group-4-Copy" transform="translate(1120.000000, 42.000000)">
                <path d="M25.9682308,24 L7.47876923,24 C6.66184615,24 6,24.6618462 6,25.4787692 C6,26.2956923 6.66184615,26.9582308 7.47876923,26.9582308 L25.9668462,26.9582308 C26.7844615,26.9582308 27.4463077,26.2956923 27.4463077,25.4787692 C27.4463077,24.6618462 26.7837692,24 25.9682308,24 Z" id="Shape"></path>
                <path d="M5,12.1090769 L5,15.8066923 C5,16.4193846 5.49707692,16.9164615 6.10907692,16.9164615 C6.72176923,16.9164615 7.21884615,16.4193846 7.21884615,15.8066923 L7.21884615,12.1090769 C7.21884615,11.4963846 6.72176923,11 6.10907692,11 C5.49638462,11.0006923 5,11.4970769 5,12.1090769 Z" id="Shape"></path>
                <path d="M9,10.1097692 L9,15.2861538 C9,15.8988462 9.49707692,16.3959231 10.1097692,16.3959231 C10.7217692,16.3959231 11.2188462,15.8988462 11.2188462,15.2861538 L11.2188462,10.1097692 C11.2188462,9.49707692 10.7217692,9 10.1097692,9 C9.49707692,9 9,9.49707692 9,10.1097692 Z" id="Shape"></path>
                <path d="M13,9.10976923 L13,15.7649231 C13,16.3776154 13.4970769,16.8746923 14.1097692,16.8746923 C14.7217692,16.8746923 15.2188462,16.3776154 15.2188462,15.7649231 L15.2188462,9.10976923 C15.2188462,8.49707692 14.7217692,8 14.1097692,8 C13.4970769,8 13,8.49707692 13,9.10976923 Z" id="Shape"></path>
                <path d="M31.059,0 L1.47946154,0 C0.662538462,0 0,0.662538462 0,1.47946154 L0,19.9675385 C0,20.7844615 0.662538462,21.447 1.47946154,21.447 L29.7069231,21.447 C29.664,21.4089231 29.6148462,21.3777692 29.5746923,21.3383077 L27.5275385,19.2897692 C26.3471538,19.9564615 25.0103077,20.313 23.6402308,20.313 C21.7723846,20.313 20.0042308,19.6691538 18.5822308,18.4901538 L2.95753846,18.4901538 L2.95753846,2.95753846 L29.5802308,2.95753846 L29.5802308,7.12661538 C30.8651538,8.577 31.5761538,10.4185385 31.5761538,12.375 C31.5761538,13.7450769 31.2203077,15.0812308 30.5543077,16.2602308 L32.5377692,18.2450769 L32.5377692,1.47876923 C32.5384615,0.662538462 31.8759231,0 31.059,0 Z" id="Shape"></path>
                <path d="M29.15,17.2133077 C29.0025385,17.0651538 28.8045385,17.0049231 28.6120769,17.0256923 L28.3012308,16.7148462 C29.3396923,15.5351538 29.9129231,14.0418462 29.9129231,12.4564615 C29.9129231,10.7326154 29.2420769,9.11123077 28.0236154,7.89207692 C26.8030769,6.67015385 25.1823846,6 23.4564615,6 C21.7333077,6 20.1126154,6.67084615 18.8927692,7.89207692 C17.6715385,9.11123077 17,10.7326154 17,12.4564615 C17,14.1803077 17.6729231,15.8023846 18.8927692,17.0215385 C20.1126154,18.2420769 21.7333077,18.9122308 23.4564615,18.9122308 C25.0439231,18.9122308 26.5365385,18.3396923 27.7148462,17.2998462 L28.0270769,17.61 C28.0063077,17.8038462 28.0658462,17.9997692 28.2146923,18.1493077 L30.4390769,20.3736923 C30.5685385,20.5031538 30.7374615,20.5661538 30.9077692,20.5661538 C31.076,20.5661538 31.2463077,20.5024615 31.3764615,20.3736923 C31.634,20.1147692 31.634,19.6959231 31.3764615,19.4383846 L29.15,17.2133077 Z M27.0869231,16.0834615 C26.1176923,17.0533846 24.8279231,17.5892308 23.4564615,17.5892308 C22.0870769,17.5892308 20.798,17.0547692 19.8287692,16.0848462 C18.8602308,15.1163077 18.3250769,13.8265385 18.3250769,12.4557692 C18.3250769,11.0856923 18.8588462,9.79661538 19.8287692,8.82738462 C20.798,7.85746154 22.0884615,7.323 23.4564615,7.323 C24.8279231,7.323 26.1176923,7.85676923 27.0869231,8.82738462 C28.0547692,9.79661538 28.5892308,11.0856923 28.5892308,12.4557692 C28.5892308,13.8265385 28.0547692,15.1142308 27.0869231,16.0834615 Z" id="Shape"></path>
            </g>
        </g>
    </g>
</svg>