<?xml version="1.0" encoding="UTF-8"?>
<svg width="28px" height="27px" viewBox="0 0 28 27" version="1.1" xmlns="http://www.w3.org/2000/svg" xmlns:xlink="http://www.w3.org/1999/xlink">
    <!-- Generator: Sketch 43.2 (39069) - http://www.bohemiancoding.com/sketch -->
    <title>Group 5</title>
    <desc>Created with Sketch.</desc>
    <defs></defs>
    <g id="Page-1" stroke="none" stroke-width="1" fill="none" fill-rule="evenodd">
        <g id="merchant" transform="translate(-1269.000000, -132.000000)" fill-rule="nonzero">
            <g id="Group-5" transform="translate(1269.222222, 132.000000)">
                <path d="M22.5000176,0 C20.0182852,0 18.0000352,2.01825 18.0000352,4.49998242 C18.0000352,6.98171484 20.0182852,8.99996484 22.5000176,8.99996484 C24.98175,8.99996484 27,6.98176758 27,4.49998242 C27,2.01819727 24.98175,0 22.5000176,0 Z" id="Shape" fill="#7D8284"></path>
                <path d="M15.7500176,4.49998242 C15.7500176,3.71023242 15.8940352,2.95533984 16.1437852,2.24996484 L4.50003516,2.24996484 C2.01825,2.25001758 0,4.26826758 0,6.75 L0,22.5000176 C0,24.98175 2.01825,27 4.49998242,27 L20.25,27 C22.7317324,27 24.7499824,24.98175 24.7499824,22.5000176 L24.7499824,10.8562676 C24.0446074,11.107125 23.2897148,11.2500352 22.4999648,11.2500352 C18.7773926,11.2499824 15.7500176,8.22260742 15.7500176,4.49998242 Z" id="Shape" fill="#666666"></path>
            </g>
        </g>
    </g>
</svg>