<?xml version="1.0" encoding="UTF-8"?>
<svg width="31px" height="27px" viewBox="0 0 31 27" version="1.1" xmlns="http://www.w3.org/2000/svg" xmlns:xlink="http://www.w3.org/1999/xlink">
    <!-- Generator: Sketch 43.2 (39069) - http://www.bohemiancoding.com/sketch -->
    <title>stats</title>
    <desc>Created with Sketch.</desc>
    <defs></defs>
    <g id="Page-1" stroke="none" stroke-width="1" fill="none" fill-rule="evenodd">
        <g id="merchant" transform="translate(-1142.000000, -132.000000)" fill-rule="nonzero" fill="#666666">
            <g id="stats" transform="translate(1142.333333, 132.000000)">
                <path d="M2.39293033,18.1047214 C2.39293033,20.3057221 2.39293033,23.2255123 2.39293033,23.2255123 L2.39293033,25.8044825 C2.39293033,26.4217242 2.89702869,26.9167398 3.51178279,26.9167398 L6.03227459,26.9167398 C6.65317623,26.9167398 7.15112705,26.4156129 7.15112705,25.8044825 L7.15112705,23.2255123 L7.15112705,19.9376309 C7.15112705,19.9376309 7.15112705,19.1948842 7.15112705,18.8235108 C7.15112705,17.0074233 7.15112705,13.3752483 7.15112705,13.3752483 C7.15112705,13.3202466 2.39293033,18.1047214 2.39293033,18.1047214 Z" id="Shape"></path>
                <path d="M29.2822746,0 L29.2023566,0 C27.5056352,0.0794469487 25.8027664,0.158893897 24.1060451,0.238340846 C23.8417008,0.250563454 23.5835041,0.262786061 23.4359631,0.580573856 C23.2884221,0.892250347 23.4544057,1.06947816 23.638832,1.25281727 C24.161373,1.77227809 24.6777664,2.29785021 25.2064549,2.80508842 L24.6285861,3.37955097 L19.9257172,8.05469834 L19.5076844,8.47026699 L18.4810451,9.49085472 L14.4359631,13.5120926 L14.2023566,13.279863 L9.3642418,8.47026699 L8.33760246,7.44967926 L8.06096311,7.1746706 C7.83965164,6.95466366 7.55686475,6.8507715 7.26793033,6.8507715 C6.9789959,6.8507715 6.69620902,6.96077497 6.47489754,7.1746706 L6.1982582,7.44967926 L0.327356557,13.2859743 C-0.109118852,13.7198769 -0.109118852,14.4287881 0.327356557,14.8626907 L0.603995902,15.1376994 C0.825307377,15.3577063 1.10809426,15.4615985 1.39702869,15.4615985 C1.68596311,15.4615985 1.96875,15.351595 2.19006148,15.1376994 L7.26793033,10.0897625 L7.50153689,10.321992 L12.3396516,15.1315881 L13.366291,16.1521758 L13.6429303,16.4271845 C13.8642418,16.6471914 14.1470287,16.7510836 14.4359631,16.7510836 C14.7248975,16.7510836 15.0076844,16.6410801 15.2289959,16.4271845 L15.5056352,16.1521758 L20.34375,11.3425798 L21.3703893,10.321992 L21.7884221,9.90642337 L26.491291,5.23127601 L27.0630123,4.66292476 L28.5998975,6.17852809 C28.741291,6.31908807 28.8826844,6.47187067 29.0855533,6.47187067 C29.1593238,6.47187067 29.2453893,6.44742545 29.3376025,6.39853502 C29.6449795,6.23352982 29.7126025,5.96463245 29.7248975,5.66517857 C29.798668,4.01512656 29.8785861,2.37118585 29.9585041,0.721133842 C29.9769467,0.226118239 29.7679303,0 29.2822746,0 Z" id="Shape"></path>
                <path d="M13.0770727,17.7229847 L12.0504334,16.7023969 L8.96465164,13.5049072 C8.96465164,13.5049072 8.96465164,19.3020553 8.96465164,19.5037283 L8.96465164,19.9437422 L8.96465164,25.3705799 L8.96465164,25.8105938 C8.96465164,26.4278355 9.46875,26.9228511 10.0835041,26.9228511 L12.6039959,26.9228511 C13.2248975,26.9228511 13.7228484,26.4217242 13.7228484,25.8105938 L13.7228484,25.3705799 L13.7228484,23.078841 L13.7228484,18.2756015 L13.0770727,17.7229847 Z" id="Shape"></path>
                <path d="M16.5076844,17.3680486 C16.5076844,17.3680486 16.8688463,17.0971681 16.5244231,17.3680486 C16.1799999,17.6389292 15.7945697,18.0097355 15.536373,18.1319616 L15.536373,25.3705799 L15.536373,25.8105938 C15.536373,26.4278355 16.0404713,26.9228511 16.6552254,26.9228511 L19.1757172,26.9228511 C19.7966189,26.9228511 20.2945697,26.4217242 20.2945697,25.8105938 L20.2945697,25.3705799 L20.2945697,19.9437422 L20.2945697,19.5037283 C20.2945697,19.1981631 20.3788197,13.5001373 20.3788197,13.5001373 L16.5076844,17.3680486 Z" id="Shape"></path>
                <path d="M22.7904713,12.0101943 L22.3724385,12.425763 L22.1019467,12.6946604 L22.1019467,17.3586607 L22.1019467,17.8842328 L22.1019467,19.9376309 L22.1019467,20.463203 L22.1019467,23.219401 L22.1019467,25.7983712 C22.1019467,26.4156129 22.6060451,26.9106285 23.2207992,26.9106285 L25.741291,26.9106285 C26.3621926,26.9106285 26.8601434,26.4095016 26.8601434,25.7983712 L26.8601434,23.219401 L26.8601434,20.4693143 L26.8601434,19.9437422 L26.8601434,17.8903441 L26.8601434,17.364772 L26.8601434,14.6024627 L26.8601434,12.0234925 C26.8601434,11.9746021 26.8539959,8.00322491 26.8478484,7.95433448 L22.7904713,12.0101943 Z" id="Shape"></path>
            </g>
        </g>
    </g>
</svg>