<?xml version="1.0" encoding="UTF-8"?>
<svg width="30px" height="27px" viewBox="0 0 30 27" version="1.1" xmlns="http://www.w3.org/2000/svg" xmlns:xlink="http://www.w3.org/1999/xlink">
    <!-- Generator: Sketch 43.2 (39069) - http://www.bohemiancoding.com/sketch -->
    <title>Group 3 Copy</title>
    <desc>Created with Sketch.</desc>
    <defs></defs>
    <g id="Page-1" stroke="none" stroke-width="1" fill="none" fill-rule="evenodd">
        <g id="Artboard" transform="translate(-651.000000, -42.000000)" fill="#5E99B3">
            <g id="Group-3-Copy" transform="translate(651.000000, 42.000000)">
                <path d="M22.5949693,11.0129234 L28.9113924,5.1028931 C29.7195387,4.34674218 29.4761281,3.72755288 28.3699268,3.71783002 L19.8298455,3.64276768 C19.7446326,3.63162589 19.6577367,3.62587413 19.569507,3.62587413 L17.9078119,3.62587413 L14.5172414,3.59607299 L14.5172414,2.79298972 C14.5172414,1.68339858 13.6257465,0.793706294 12.5260318,0.793706294 L0.410658307,0.793706294 L0.410658307,17.7867133 L11.6381319,17.7867133 L11.7444877,18.2017318 C11.8245632,18.5142003 12.1630202,18.7771796 12.4973946,18.7771796 L19.5651256,18.7771796 C19.6389126,18.7771796 19.7117356,18.7732457 19.7833977,18.765578 L28.2638177,18.8309776 C29.3699857,18.8395082 29.6553028,18.1989351 28.8921054,17.3994437 C28.8921054,17.3994437 26.0013657,14.3022676 22.5949693,11.0129234 Z" id="Combined-Shape"></path>
                <path d="M0.410658307,1.77880015 C0.410658307,1.00495103 0.726444926,0.377622378 1.11598746,0.377622378 C1.50553,0.377622378 1.82131661,1.00495103 1.82131661,1.77880015 L1.82131661,27 L0.410658307,27 L0.410658307,1.77880015 Z" id="Oval-2"></path>
                <path d="M1.11598746,1.79370629 C2.34653881,1.79370629 2.34653881,1.24955081 2.34653881,0.846661519 C2.34653881,0.443772227 2.34653881,0.123528922 1.11598746,0.123528922 C-0.114563886,0.123528922 0.0130738263,0.846661519 0.0130738263,0.846661519 C0.0130738263,0.846661519 -0.114563886,1.79370629 1.11598746,1.79370629 Z" id="Oval-3"></path>
            </g>
        </g>
    </g>
</svg>