<?xml version="1.0" encoding="UTF-8"?>
<svg width="30px" height="27px" viewBox="0 0 30 27" version="1.1" xmlns="http://www.w3.org/2000/svg" xmlns:xlink="http://www.w3.org/1999/xlink">
    <!-- Generator: Sketch 43.2 (39069) - http://www.bohemiancoding.com/sketch -->
    <title>increase copy</title>
    <desc>Created with Sketch.</desc>
    <defs></defs>
    <g id="Page-1" stroke="none" stroke-width="1" fill="none" fill-rule="evenodd">
        <g id="Artboard" transform="translate(-247.000000, -42.000000)" fill-rule="nonzero" fill="#5E99B3">
            <g id="increase-copy" transform="translate(247.000000, 42.000000)">
                <path d="M29.120918,25.2421289 L0.87890625,25.2421289 C0.393105469,25.2421289 0,25.6352344 0,26.1210352 C0,26.6068359 0.393105469,26.9999414 0.87890625,26.9999414 L29.120918,26.9999414 C29.6067187,26.9999414 29.9998242,26.6068359 29.9998242,26.1210352 C29.9998242,25.6352344 29.6067187,25.2421289 29.120918,25.2421289 Z" id="Shape"></path>
                <path d="M8.02728516,16.453125 L2.63671875,16.453125 C2.15091797,16.453125 1.7578125,16.8462305 1.7578125,17.3320313 L1.7578125,23.4843164 L8.90619141,23.4843164 L8.90619141,17.3320313 C8.90619141,16.8462305 8.51308594,16.453125 8.02728516,16.453125 Z" id="Shape"></path>
                <path d="M16.8162891,11.1796875 L11.5428516,11.1796875 C11.0570508,11.1796875 10.6639453,11.572793 10.6639453,12.0585937 L10.6639453,23.4843164 L17.6951367,23.4843164 L17.6951367,12.0585937 C17.6951953,11.572793 17.3020898,11.1796875 16.8162891,11.1796875 Z" id="Shape"></path>
                <path d="M29.7423047,6.46307127 L23.5900195,0.228311029 C23.2467187,-0.0761036764 22.6904883,-0.0761036764 22.3471875,0.228311029 L16.1948437,6.46307127 C15.9433594,6.68606972 15.867832,7.02093109 16.0042969,7.31246052 C16.1398828,7.60393799 16.460918,7.79347628 16.8162305,7.79347628 L19.4529492,7.79347628 L19.4529492,23.4843164 L26.4841992,23.4843164 L26.4841992,7.79347628 L29.120918,7.79347628 C29.4762305,7.79347628 29.7972656,7.60398995 29.9328516,7.31246052 C30.0693164,7.02098305 29.9937891,6.68606972 29.7423047,6.46307127 Z" id="Shape"></path>
            </g>
        </g>
    </g>
</svg>