<?xml version="1.0" encoding="UTF-8"?>
<svg width="26px" height="27px" viewBox="0 0 26 27" version="1.1" xmlns="http://www.w3.org/2000/svg" xmlns:xlink="http://www.w3.org/1999/xlink">
    <!-- Generator: Sketch 43.2 (39069) - http://www.bohemiancoding.com/sketch -->
    <title>Shape</title>
    <desc>Created with Sketch.</desc>
    <defs></defs>
    <g id="Page-1" stroke="none" stroke-width="1" fill="none" fill-rule="evenodd">
        <g id="merchant" transform="translate(-1380.000000, -132.000000)" fill-rule="nonzero" fill="#666666">
            <path d="M1405.25086,155.53145 L1398.63427,151.994928 L1398.32868,151.029918 C1398.2372,150.706591 1398.09241,150.383327 1397.7946,150.298356 C1397.7,150.271418 1397.58031,150.096883 1397.56486,149.975029 L1397.38825,148.098573 C1397.37853,147.937885 1397.44231,147.793687 1397.52625,147.692415 C1398.03318,147.07849 1398.3095,146.367447 1398.42639,145.554502 C1398.48518,145.145764 1398.69561,144.768811 1398.80372,144.366242 L1399.22795,142.122462 C1399.27223,141.827836 1399.26363,141.600745 1398.9378,141.486571 C1398.84794,141.454911 1398.76972,141.30442 1398.76972,141.078777 L1398.77402,136.845122 C1398.70483,135.820444 1398.16801,135.028081 1397.40662,134.476593 C1395.95222,133.423026 1393.34777,133.911573 1394.19778,132.193035 C1394.24798,132.091889 1394.23197,131.916158 1393.88254,132.046068 C1392.57873,132.530902 1389.1059,133.812001 1388.23347,134.476593 C1387.45266,135.071322 1386.93539,135.820444 1386.86608,136.845122 L1386.87037,141.078777 C1386.87037,141.265082 1386.79222,141.454911 1386.70223,141.486571 C1386.37634,141.600682 1386.36781,141.827836 1386.41208,142.122462 L1386.83643,144.366242 C1386.9443,144.768811 1387.15485,145.145827 1387.2137,145.554502 C1387.33047,146.367447 1387.60698,147.07849 1388.11378,147.692415 C1388.19766,147.793687 1388.2615,147.937885 1388.25178,148.098573 L1388.07517,149.975029 C1388.05966,150.096883 1387.93978,150.271418 1387.84537,150.298356 C1387.5475,150.383327 1387.40265,150.706591 1387.31123,151.029918 L1387.00551,151.994928 L1380.38868,155.53145 C1380.21791,155.622651 1380.11111,155.801907 1380.11111,155.997023 L1380.11111,158.473306 C1380.11111,158.764156 1380.34452,158.999996 1380.63236,158.999996 L1405.00723,158.999996 C1405.29507,158.999996 1405.52849,158.764156 1405.52849,158.473306 L1405.52849,155.997023 C1405.52836,155.801907 1405.42156,155.622651 1405.25086,155.53145 Z" id="Shape"></path>
        </g>
    </g>
</svg>