<?xml version="1.0" encoding="UTF-8"?>
<svg width="26px" height="27px" viewBox="0 0 26 27" version="1.1" xmlns="http://www.w3.org/2000/svg" xmlns:xlink="http://www.w3.org/1999/xlink">
    <!-- Generator: Sketch 43.2 (39069) - http://www.bohemiancoding.com/sketch -->
    <title>Shape Copy</title>
    <desc>Created with Sketch.</desc>
    <defs></defs>
    <g id="Page-1" stroke="none" stroke-width="1" fill="none" fill-rule="evenodd">
        <g id="Artboard" transform="translate(-1017.000000, -42.000000)" fill-rule="nonzero" fill="#5E99B3">
            <path d="M1042.13975,65.5314498 L1035.52316,61.9949277 L1035.21757,61.0299182 C1035.12609,60.7065909 1034.98129,60.3833266 1034.68349,60.2983564 C1034.58889,60.2714177 1034.4692,60.0968826 1034.45375,59.9750291 L1034.27714,58.0985727 C1034.26742,57.9378847 1034.33119,57.7936871 1034.41514,57.6924152 C1034.92207,57.0784899 1035.19839,56.3674468 1035.31528,55.5545025 C1035.37407,55.1457644 1035.5845,54.7688115 1035.69261,54.3662416 L1036.11684,52.1224623 C1036.16112,51.8278361 1036.15252,51.6007454 1035.82669,51.4865706 C1035.73683,51.4549114 1035.65861,51.3044197 1035.65861,51.0787767 L1035.66291,46.8451215 C1035.59372,45.820444 1035.0569,45.0280813 1034.29551,44.4765934 C1032.84111,43.423026 1030.23666,43.9115731 1031.08667,42.1930354 C1031.13687,42.0918894 1031.12086,41.9161585 1030.77143,42.0460684 C1029.46762,42.530902 1025.99479,43.8120006 1025.12236,44.4765934 C1024.34154,45.0713217 1023.82428,45.820444 1023.75497,46.8451215 L1023.75926,51.0787767 C1023.75926,51.2650817 1023.68111,51.4549114 1023.59112,51.4865706 C1023.26523,51.6006824 1023.25669,51.8278361 1023.30097,52.1224623 L1023.72532,54.3662416 C1023.83318,54.7688115 1024.04374,55.1458274 1024.10259,55.5545025 C1024.21936,56.3674468 1024.49586,57.0784899 1025.00267,57.6924152 C1025.08655,57.7936871 1025.15039,57.9378847 1025.14067,58.0985727 L1024.96406,59.9750291 C1024.94855,60.0968826 1024.82867,60.2714177 1024.73426,60.2983564 C1024.43639,60.3833266 1024.29154,60.7065909 1024.20012,61.0299182 L1023.8944,61.9949277 L1017.27756,65.5314498 C1017.1068,65.6226511 1017,65.8019067 1017,65.9970234 L1017,68.4733064 C1017,68.7641562 1017.23341,68.9999956 1017.52125,68.9999956 L1041.89612,68.9999956 C1042.18396,68.9999956 1042.41737,68.7641562 1042.41737,68.4733064 L1042.41737,65.9970234 C1042.41725,65.8019067 1042.31045,65.6226511 1042.13975,65.5314498 Z" id="Shape-Copy"></path>
        </g>
    </g>
</svg>